<?xml version="1.0" encoding="UTF-8"?><svg xmlns="http://www.w3.org/2000/svg" xmlns:xlink="http://www.w3.org/1999/xlink" width="785" height="469" xmlns:v="https://vecta.io/nano"><style><![CDATA[.B{fill:#555}.C{fill:#fff}.D{fill:#9ff487}.E{fill:#7fdb65}.F{fill:#eee}.G{fill:#51a33d}.H{fill:#c9f9bb}.I{fill:#fff5d9}.J{fill:#f5e5b9}.K{fill:#e0c785}.L{fill:#d2ab40}]]></style><g fill-rule="evenodd"><path d="M339.902 200.27a1 1 0 0 1-.998-.946l-.23-3.984a1 1 0 0 1 .936-1.06c.552-.024 1.026.384 1.06.935l.232 4a1 1 0 0 1-.945 1.053l-.054.001M190.385 31.612h-.03l-7.274-.103-.77.001c-.587-.02-1.002-.444-1.004-.996a1 1 0 0 1 .996-1.004h.778l7.33.103a1 1 0 0 1 .971 1.028 1 1 0 0 1-.999.972m-24.226.4a1 1 0 0 1-.058-1.998l.396-.023 7.7-.348c.548-.03 1.014.415 1.032.967a1 1 0 0 1-.967 1.031l-8.104.37m40.337.607c-.033 0-.067-.002-.1-.005l-8.008-.65a1 1 0 0 1-.935-1.06c.034-.552.508-.976 1.06-.936l8.08.654a1 1 0 0 1 .896 1.094 1 1 0 0 1-.994.902m-56.42.88a1 1 0 0 1-.124-1.992l8.063-.88a1.001 1.001 0 1 1 .184 1.993l-7.997.872c-.042.005-.084.007-.126.007m72.4 1.366a.94.94 0 0 1-.182-.017l-7.923-1.28a1 1 0 0 1-.852-1.129c.077-.547.583-.924 1.13-.852l8 1.295a1 1 0 0 1-.181 1.984m-88.347 1.198a1 1 0 0 1-.191-1.982l7.986-1.424a1 1 0 0 1 1.146.829 1 1 0 0 1-.829 1.145l-7.917 1.413a1 1 0 0 1-.195.02m104.057 2.463c-.1 0-.183-.013-.275-.038l-7.762-2.008a1 1 0 0 1-.748-1.2c.125-.538.662-.877 1.2-.747l7.86 2.03a1 1 0 0 1-.274 1.962m-119.786 1.2a1 1 0 0 1-.261-1.965l7.866-1.986c.54-.123 1.076.2 1.202.746a1 1 0 0 1-.747 1.201l-7.797 1.97c-.088.024-.176.035-.263.035m135.03 4.05a.99.99 0 0 1-.378-.075l-7.497-2.82a1 1 0 0 1 .652-1.891l7.602 2.86a1 1 0 0 1-.379 1.926m-150.45.764a1 1 0 0 1-.334-1.942l7.7-2.565c.527-.16 1.088.13 1.253.658a1 1 0 0 1-.657 1.253l-7.63 2.54a1 1 0 0 1-.334.057m-15.005 5.985a1 1 0 0 1-.407-1.914l7.48-3.155c.514-.208 1.095.046 1.3.56a1 1 0 0 1-.558 1.299L88.38 50.46a.98.98 0 0 1-.407.087m179.975.258a.99.99 0 0 1-.49-.128l-7.096-3.7a1 1 0 0 1-.467-1.335 1 1 0 0 1 1.335-.466l7.208 3.757c.48.272.652.88.382 1.363a1 1 0 0 1-.873.509M73.506 57.73a1 1 0 0 1-.484-1.876L80.22 52.1c.495-.248 1.095-.044 1.34.45a1 1 0 0 1-.451 1.34l-7.12 3.725a1 1 0 0 1-.482.124m207.943 1.887a1 1 0 0 1-.601-.201l-6.548-4.592a1 1 0 1 1 1.093-1.676l6.658 4.67a1 1 0 0 1-.602 1.799M59.728 66.17a1 1 0 0 1-.562-1.828l6.83-4.404a1 1 0 0 1 1.375.331 1 1 0 0 1-.331 1.374l-6.75 4.354a.99.99 0 0 1-.56.173m233.9 4.005c-.255 0-.5-.097-.705-.3l-5.865-5.44a1 1 0 0 1 1.31-1.512l5.964 5.533a1 1 0 0 1-.704 1.71M46.858 75.93a1 1 0 0 1-.648-1.761l6.348-5.1a1 1 0 0 1 1.401.193 1 1 0 0 1-.194 1.401l-6.26 5.02a1 1 0 0 1-.647.237m257.444 6.346c-.3 0-.595-.134-.792-.4l-5.1-6.176a1.001 1.001 0 0 1 1.502-1.323l5.172 6.28a1 1 0 0 1-.181 1.402.99.99 0 0 1-.61.208m-269.057 4.88c-.237 0-.476-.084-.667-.256a1 1 0 0 1-.076-1.412l5.667-5.858c.398-.385 1.03-.373 1.414.026a1 1 0 0 1-.026 1.413L36 86.825a1 1 0 0 1-.745.332m278.1 8.474a1 1 0 0 1-.861-.491l-4.277-6.758a1 1 0 1 1 1.657-1.12l4.34 6.86a1 1 0 0 1-.35 1.37c-.16.095-.336.14-.5.14m-287.73 4.465a1 1 0 0 1-.86-1.507c1.315-2.234 2.85-4.52 4.562-6.8a1 1 0 0 1 1.599 1.201c-1.667 2.22-3.16 4.443-4.438 6.613-.186.317-.52.492-.863.492m295.17 9.845a1 1 0 0 1-.911-.586l-3.504-7.2a1 1 0 1 1 1.775-.922l3.55 7.305a1 1 0 0 1-.497 1.324.98.98 0 0 1-.413.09M20.002 115.12a.92.92 0 0 1-.117-.007 1 1 0 0 1-.878-1.108c.292-2.514.998-5.216 2.1-8.034a1 1 0 0 1 1.296-.567 1 1 0 0 1 .566 1.296c-1.04 2.657-1.705 5.192-1.976 7.535a1 1 0 0 1-.992.885m306.737 9.823a1 1 0 0 1-.945-.673l-2.8-7.53a1 1 0 0 1 .56-1.299c.514-.202 1.095.048 1.3.56l2.822 7.613a1 1 0 0 1-.618 1.272.99.99 0 0 1-.327.055M64.9 128.3a1 1 0 0 1-.3-1.955l7.596-2.6a1 1 0 0 1 .692 1.877l-7.688 2.633a1.04 1.04 0 0 1-.3.046m-39.23 1.023a1 1 0 0 1-.564-.175c-2.494-1.705-4.27-3.966-5.282-6.72a1 1 0 1 1 1.878-.689c.864 2.355 2.4 4.293 4.533 5.76a1 1 0 0 1 .261 1.389c-.194.284-.507.436-.826.436m23.538 2.768a1 1 0 0 1-.152-1.989l7.83-1.587a1 1 0 1 1 .478 1.942l-8 1.622a1.02 1.02 0 0 1-.155.012m-9.22.77c-2.546 0-4.916-.2-7.045-.625a1 1 0 0 1-.79-1.173 1.01 1.01 0 0 1 1.173-.8c2.003.4 4.244.588 6.662.588.382.02.768-.004 1.16-.015.54-.024 1 .423 1.024.976a1 1 0 0 1-.975 1.024l-1.2.015m291.394 7.54a1 1 0 0 1-.968-.75l-2.157-7.74a1 1 0 1 1 1.916-.574l2.178 7.813a1 1 0 0 1-.718 1.218.99.99 0 0 1-.251.032m3.496 15.767a1 1 0 0 1-.982-.816l-1.6-7.888a1 1 0 0 1 .76-1.192c.54-.116 1.073.222 1.193.76l1.623 7.95a1 1 0 0 1-.799 1.167c-.062.012-.124.018-.185.018m2.517 15.97a1 1 0 0 1-.99-.871l-1.143-7.975a1 1 0 1 1 1.976-.311l1.15 8.028a1 1 0 0 1-.863 1.122l-.13.007m1.692 16.08a1 1 0 0 1-.995-.918l-.75-8.028a1 1 0 1 1 1.989-.209l.754 8.073a1 1 0 0 1-.914 1.079l-.084.003M80.362 122.606c-.392 0-.764-.23-.923-.615a1 1 0 0 1 .538-1.308l3.665-1.562c.506-.225 1.095.008 1.316.515a1 1 0 0 1-.516 1.317l-3.696 1.576c-.126.053-.256.077-.384.077" class="D"/><path d="M347.04 116c0-13.808-11.193-25-25-25s-25 11.192-25 25 11.193 25 25 25 25-11.193 25-25" class="C"/><path d="M322.04 92c-13.234 0-24 10.767-24 24s10.766 24 24 24 24-10.767 24-24-10.766-24-24-24m0 50c-14.336 0-26-11.663-26-26s11.664-26 26-26 26 11.663 26 26-11.664 26-26 26" class="D"/><g class="G"><path d="M313.04 110a1 1 0 0 0-1 1v14a1 1 0 0 0 1 1h18a1 1 0 0 0 1-1v-14a1 1 0 0 0-1-1h-18zm18 18h-18c-1.654 0-3-1.346-3-3v-14c0-1.654 1.346-3 3-3h18c1.654 0 3 1.346 3 3v14c0 1.654-1.346 3-3 3h0z"/><use xlink:href="#B"/><use xlink:href="#B" x="10.126"/><path d="M333.04 118h-22a1 1 0 1 1 0-2h22a1 1 0 1 1 0 2"/></g><path d="M159.04 34c0-11.046-8.954-20-20-20s-20 8.954-20 20 8.954 20 20 20 20-8.955 20-20" class="C"/><path d="M139.04 15c-10.477 0-19 8.523-19 19s8.523 19 19 19 19-8.523 19-19-8.523-19-19-19m0 40c-11.58 0-21-9.42-21-21s9.42-21 21-21 21 9.42 21 21-9.42 21-21 21" class="D"/><path d="M150.036 46a1 1 0 0 1-.164-.014l-3.728-.62c-.993.42-2.037.635-3.108.635-3.558 0-6.722-2.388-7.695-5.808a1 1 0 0 1 .688-1.235c.53-.153 1.084.156 1.235.7.73 2.563 3.103 4.354 5.772 4.354a5.94 5.94 0 0 0 2.549-.575c.184-.087.4-.113.6-.082l2.643.44-.44-2.644a.99.99 0 0 1 .082-.59c.38-.8.575-1.667.575-2.548 0-2.67-1.8-5.043-4.355-5.772a1 1 0 0 1-.688-1.236c.15-.532.704-.844 1.236-.688 3.42.973 5.807 4.138 5.807 7.696 0 1.072-.213 2.115-.635 3.107l.62 3.73a1 1 0 0 1-.986 1.164M132.06 35.33c.147 0 .292.032.426.096a5.94 5.94 0 0 0 2.549.575 6.01 6.01 0 0 0 6-6 6.01 6.01 0 0 0-6-6 6.01 6.01 0 0 0-6 6 5.93 5.93 0 0 0 .576 2.548 1 1 0 0 1 .081.591l-.44 2.644 2.644-.44a1 1 0 0 1 .164-.014M128.036 38a1 1 0 0 1-.986-1.164l.62-3.73a7.92 7.92 0 0 1-.635-3.107 8.01 8.01 0 0 1 8-8 8.01 8.01 0 0 1 8 8 8.01 8.01 0 0 1-8 8 7.92 7.92 0 0 1-3.108-.635l-3.727.62a1.02 1.02 0 0 1-.165.014" class="G"/><path d="M64.04 131c0-7.732-6.268-14-14-14s-14 6.268-14 14 6.268 14 14 14 14-6.27 14-14" class="C"/><path d="M50.04 118a13.02 13.02 0 0 0-13 13 13.02 13.02 0 0 0 13 13 13.02 13.02 0 0 0 13-13 13.02 13.02 0 0 0-13-13m0 28a15.02 15.02 0 0 1-15-15 15.02 15.02 0 0 1 15-15 15.02 15.02 0 0 1 15 15 15.02 15.02 0 0 1-15 15" class="D"/><g class="G"><path d="M46.54 125.166c-.322 0-.583.262-.583.584v10.5c0 .32.26.583.583.583h7c.322 0 .583-.262.583-.583v-8.51l-2.575-2.575H46.54zm7 12.834h-7c-.965 0-1.75-.785-1.75-1.75v-10.5a1.75 1.75 0 0 1 1.75-1.75h5.25c.155 0 .303.062.412.17l2.917 2.916c.11.11.17.258.17.413v8.75c0 .965-.785 1.75-1.75 1.75h0z"/><path d="M54.708 128.666H51.8a1.17 1.17 0 0 1-1.166-1.166v-2.917a.58.58 0 1 1 1.166 0v2.917h2.917a.58.58 0 1 1 0 1.166m-2.332 2.917h-4.667a.58.58 0 0 1-.583-.583c0-.323.26-.584.583-.584h4.667c.322 0 .583.26.583.584a.58.58 0 0 1-.583.583m-3.5-2.917h-1.167a.58.58 0 1 1 0-1.166h1.167a.58.58 0 1 1 0 1.166m3.5 5.834h-4.667c-.322 0-.583-.262-.583-.584a.58.58 0 0 1 .583-.583h4.667a.58.58 0 0 1 .583.583c0 .323-.26.584-.583.584"/></g><path d="M83.26 128.333a.98.98 0 0 1-.438-.102 1 1 0 0 1-.46-1.336l3.78-7.74-7.738-3.78a1 1 0 0 1-.46-1.337 1 1 0 0 1 1.337-.46l8.637 4.218a1 1 0 0 1 .46 1.337l-4.218 8.636a1 1 0 0 1-.899.562" class="D"/><g class="C"><path d="M519.434 233.534h13.282l-1.33 15.938h-10.625z"/><path d="M519.434 233.534h13.282l-1.33 15.938h-10.625z"/></g><path d="M517.112 233.534l1.252 15.02a1 1 0 0 0 .997.917h4.073l-1.33-15.938h-4.993z" class="F"/><path d="M521.683 248.472h8.785l1.16-13.938h-11.107l1.16 13.938zm9.705 2h-10.625a1 1 0 0 1-.997-.917l-1.328-15.937c-.023-.28.07-.555.26-.76a1 1 0 0 1 .736-.324h13.28a1 1 0 0 1 .736.324c.2.205.284.48.26.76l-1.328 15.937a1 1 0 0 1-.997.917h0z" class="B"/><g class="C"><path d="M519.434 229.55h13.282l1.328 3.984h-15.938z"/><path d="M519.434 229.55h13.282l1.328 3.984h-15.938z"/></g><path d="M516.564 230.233l-.66 1.984a1 1 0 0 0 .948 1.317h4.477l1.328-3.985h-5.143a1 1 0 0 0-.949.684" class="F"/><path d="M519.493 232.534h13.163l-.66-1.984h-11.84l-.66 1.984zm14.55 2h-15.937a1 1 0 0 1-.949-1.316l1.328-3.985a1 1 0 0 1 .949-.683h13.28a1 1 0 0 1 .949.683l1.328 3.985a1 1 0 0 1-.949 1.316h0z" class="B"/><path d="M686.04 372.037h6v-62h-6z" class="C"/><use xlink:href="#C" fill="#aaa"/><path d="M647.243 164.51s7.362-2.808 16.49-4.468a21.84 21.84 0 0 1 .211 1.905c.048 1.735-.024 3.517-.37 5.282-.118.894-.408 1.752-.606 2.643l-.88 2.655c-.074.223.02.475.232.595.242.136.55.05.685-.192l1.4-2.5 1.17-2.64c.73-1.802 1.198-3.72 1.522-5.7a25.33 25.33 0 0 0 .204-2.637c3.825-.525 7.82-.782 11.62-.5.178 2.5-.076 5.07-.647 7.602l-.512 1.95c-.194.646-.452 1.274-.674 1.917-.4 1.303-1.074 2.505-1.632 3.765-.61 1.232-1.35 2.403-2.026 3.62l-2.38 3.48a.43.43 0 0 0 .067.559c.175.157.445.142.602-.034l2.855-3.178c.85-1.145 1.773-2.253 2.578-3.447.753-1.228 1.616-2.406 2.238-3.727.328-.65.692-1.29.993-1.958l.84-2.044c.933-2.522 1.58-5.2 1.81-7.966 4.017.78 7.63 2.32 10.315 5.008.075.075.135.146.21.22-.014.07-.02.14-.035.21a53.18 53.18 0 0 1-2.775 9.202c-.552 1.516-1.294 2.948-1.975 4.416-.787 1.407-1.507 2.868-2.425 4.206-1.687 2.783-3.798 5.278-5.993 7.716l-.025.028a.58.58 0 0 0 .822.817c2.487-2.237 4.937-4.588 6.988-7.286 1.1-1.296 2.008-2.727 2.987-4.122.872-1.453 1.81-2.888 2.56-4.42a56.79 56.79 0 0 0 3.173-7.136c20.736 24.77-8.06 37.704-8.06 37.704s-12.933 28.796-37.703 8.06c2.454-.895 4.84-1.955 7.136-3.173 1.532-.75 2.966-1.687 4.42-2.56 1.395-.98 2.827-1.886 4.122-2.987 2.698-2.05 5.048-4.5 7.287-6.988a.58.58 0 0 0-.818-.821l-.028.024c-2.438 2.195-4.933 4.306-7.717 5.993-1.337.918-2.798 1.638-4.205 2.425-1.468.68-2.9 1.423-4.417 1.976a53.08 53.08 0 0 1-9.201 2.774c-.07.015-.14.02-.212.034-.074-.073-.145-.133-.22-.208-2.687-2.686-4.23-6.297-5.008-10.315 2.767-.23 5.443-.878 7.966-1.812l2.044-.838c.67-.3 1.307-.664 1.958-.993 1.32-.623 2.5-1.485 3.726-2.238 1.195-.806 2.303-1.726 3.447-2.578l3.18-2.854a.43.43 0 0 0 .032-.603c-.144-.16-.384-.186-.558-.067l-.028.02-3.453 2.36c-1.216.675-2.387 1.415-3.62 2.027-1.26.556-2.462 1.22-3.764 1.63-.643.222-1.27.48-1.917.674l-1.952.512c-2.533.57-5.1.825-7.6.648-.272-3.8-.015-7.796.5-11.62.887-.024 1.768-.088 2.636-.205 1.97-.323 3.89-.79 5.69-1.52.917-.31 1.767-.79 2.64-1.172.85-.442 1.666-.938 2.5-1.4.242-.136.328-.443.192-.685a.5.5 0 0 0-.596-.231l-.047.015c-.877.29-1.735.606-2.607.865-.89.197-1.75.487-2.644.605-1.764.345-3.546.417-5.28.37a21.84 21.84 0 0 1-1.905-.211c1.66-9.127 4.468-16.49 4.468-16.49" class="D"/><path d="M698.854 297.806a1 1 0 0 1-1-1V222.47a10.28 10.28 0 0 1 10.266-10.267c2.743 0 5.417 1.124 7.336 3.085l5.244 5.356a1 1 0 0 1-.015 1.414c-.395.388-1.028.38-1.414-.016l-5.244-5.355c-1.545-1.578-3.698-2.484-5.907-2.484a8.28 8.28 0 0 0-8.266 8.267v74.336a1 1 0 0 1-1 1m-5 1.474a1 1 0 0 1-1-1v-78.566c0-5.6-2.176-10.842-6.128-14.793l-1.74-1.74a1 1 0 0 1 1.414-1.414l1.74 1.74a22.76 22.76 0 0 1 6.714 16.207v78.566a1 1 0 0 1-1 1" class="E"/><path d="M658.04 336h62v-64h-62z" class="C"/><path d="M659.04 335h60v-62h-60v62zm61 2h-62a1 1 0 0 1-1-1v-64a1 1 0 0 1 1-1h62a1 1 0 0 1 1 1v64a1 1 0 0 1-1 1h0z" fill="#ddd"/><g class="C"><path d="M689.04 343h20v-6h-20z"/><path d="M689.04 343h20v-6h-20z"/><path d="M689.04 343h20v-6h-20z"/></g><use xlink:href="#D" fill="#aaa"/><g class="C"><path d="M669.04 343h20v-6h-20z"/><path d="M669.04 343h20v-6h-20z"/><path d="M669.04 343h20v-6h-20z"/></g><g fill="#ddd"><path d="M669.04 337v3.037c0-1.148.403-2.193 1.054-3.037h-1.054z"/><path d="M669.04 340.037V343h.992c-.616-.83-.992-1.85-.992-2.963"/></g><use xlink:href="#D" x="-20" fill="#aaa"/><path d="M707.04 372h6v-62h-6z" class="C"/><use xlink:href="#C" x="21" y="-0.037" fill="#aaa"/><path d="M666.04 372.037h6v-62h-6z" class="C"/><use xlink:href="#C" x="-20" fill="#aaa"/><path d="M614.317 280.407s-2.807-7.36-4.468-16.488a21.84 21.84 0 0 1 1.905-.211c1.735-.048 3.517.023 5.28.37.895.117 1.753.407 2.644.605l2.654.88c.224.074.476-.018.596-.23.136-.242.05-.55-.192-.686l-2.5-1.4-2.64-1.172c-1.802-.73-3.72-1.197-5.69-1.52a25.29 25.29 0 0 0-2.636-.205c-.525-3.825-.782-7.82-.5-11.62 2.5-.177 5.068.076 7.6.647l1.952.513c.646.193 1.274.45 1.917.674 1.302.41 2.505 1.074 3.764 1.63 1.233.61 2.404 1.35 3.62 2.027l3.48 2.38c.174.12.414.094.558-.067.157-.175.143-.444-.032-.602l-3.18-2.854c-1.144-.852-2.252-1.773-3.447-2.578-1.227-.754-2.405-1.616-3.726-2.238-.65-.33-1.29-.692-1.958-.994l-2.044-.838c-2.523-.934-5.2-1.58-7.966-1.81.778-4.018 2.32-7.63 5.008-10.315.074-.076.146-.136.22-.21.07.014.14.02.212.035a53.08 53.08 0 0 1 9.201 2.774c1.518.553 2.948 1.295 4.417 1.976 1.406.786 2.868 1.507 4.205 2.424 2.784 1.687 5.28 3.798 7.717 5.993l.028.025a.58.58 0 0 0 .774-.002.58.58 0 0 0 .044-.82c-2.24-2.486-4.59-4.937-7.287-6.987-1.295-1.1-2.728-2.008-4.122-2.987-1.453-.873-2.887-1.812-4.42-2.56a56.64 56.64 0 0 0-7.136-3.172c24.77-20.737 37.703 8.06 37.703 8.06s28.797 12.934 8.06 37.703a56.79 56.79 0 0 0-3.173-7.136c-.75-1.53-1.688-2.965-2.56-4.418-.98-1.395-1.886-2.827-2.987-4.122-2.05-2.7-4.5-5.05-6.988-7.287a.58.58 0 0 0-.82.043.58.58 0 0 0-.002.775l.025.027c2.195 2.44 4.306 4.933 5.993 7.717.918 1.337 1.638 2.8 2.425 4.206.68 1.468 1.423 2.9 1.975 4.416 1.204 2.985 2.133 6.07 2.775 9.2.015.07.02.142.035.212-.074.074-.134.146-.21.22-2.686 2.687-6.298 4.23-10.315 5.008-.23-2.766-.878-5.443-1.81-7.965l-.84-2.045c-.3-.67-.665-1.307-.993-1.957-.623-1.322-1.485-2.5-2.238-3.727-.806-1.194-1.727-2.302-2.578-3.447l-2.855-3.18c-.157-.175-.427-.2-.602-.033-.16.145-.186.384-.067.558l.02.028 2.36 3.453c.675 1.217 1.415 2.388 2.026 3.62.558 1.26 1.222 2.462 1.632 3.765.222.643.48 1.27.673 1.916l.513 1.952c.57 2.533.825 5.102.647 7.602-3.8.27-7.795.014-11.62-.51a25.04 25.04 0 0 0-.205-2.636c-.323-1.97-.79-3.888-1.52-5.7-.3-.918-.788-1.768-1.17-2.642-.443-.848-.94-1.666-1.4-2.49-.136-.242-.443-.328-.685-.192-.213.12-.306.372-.232.595l.016.047c.29.877.606 1.736.864 2.608.198.9.488 1.75.605 2.643.346 1.764.418 3.547.37 5.28-.04.643-.116 1.277-.21 1.905-9.127-1.66-16.49-4.468-16.49-4.468" class="D"/><path d="M676.49 272.38a1 1 0 0 1-1-1v-30.622c0-4.58-3.725-8.305-8.304-8.305-2.256 0-4.444.936-6.003 2.567l-6.217 6.504a1 1 0 0 1-1.445-1.383l6.216-6.504c1.935-2.024 4.65-3.184 7.45-3.184a10.32 10.32 0 0 1 10.304 10.305v30.622a1 1 0 0 1-1 1" class="E"/><path d="M685.443 273h-14a1 1 0 1 1 0-2h14a1 1 0 1 1 0 2" fill="#ddd"/><path d="M759.717 259.6s-7.362 2.808-16.49 4.468a21.84 21.84 0 0 1-.211-1.905c-.048-1.735.024-3.517.37-5.282.117-.894.407-1.752.605-2.643l.88-2.655a.5.5 0 0 0-.232-.594.5.5 0 0 0-.685.191l-1.4 2.5-1.17 2.64c-.73 1.803-1.198 3.72-1.52 5.69a25.04 25.04 0 0 0-.205 2.636c-3.825.525-7.82.782-11.62.5-.178-2.5.076-5.07.647-7.6l.513-1.952c.193-.646.45-1.274.673-1.917.4-1.303 1.074-2.505 1.632-3.765.61-1.232 1.35-2.403 2.026-3.62l2.38-3.48c.12-.174.094-.413-.067-.558-.175-.157-.445-.143-.602.033l-2.855 3.18c-.85 1.144-1.772 2.252-2.578 3.447-.753 1.227-1.615 2.405-2.238 3.726-.328.65-.692 1.29-.993 1.958l-.84 2.045c-.933 2.52-1.58 5.198-1.81 7.965-4.017-.78-7.63-2.32-10.315-5.008-.075-.074-.135-.146-.21-.22.014-.07.02-.14.035-.21a53.17 53.17 0 0 1 2.775-9.201c.552-1.517 1.294-2.948 1.975-4.417.787-1.406 1.507-2.868 2.425-4.205 1.687-2.784 3.798-5.278 5.993-7.717l.025-.028a.58.58 0 0 0-.822-.817c-2.487 2.238-4.937 4.588-6.988 7.286-1.1 1.296-2.008 2.727-2.987 4.122-.872 1.454-1.81 2.888-2.56 4.42a56.79 56.79 0 0 0-3.173 7.136c-20.736-24.77 8.06-37.704 8.06-37.704s12.933-28.796 37.703-8.06a56.64 56.64 0 0 0-7.136 3.172c-1.532.75-2.966 1.688-4.42 2.56-1.394.98-2.827 1.887-4.122 2.987-2.698 2.05-5.048 4.5-7.287 6.988a.58.58 0 0 0 .044.82.58.58 0 0 0 .774.002l.028-.025c2.438-2.195 4.933-4.306 7.717-5.993 1.337-.918 2.8-1.638 4.205-2.424 1.47-.682 2.9-1.424 4.417-1.976a53.17 53.17 0 0 1 9.201-2.775c.07-.015.14-.02.212-.034.074.073.146.133.22.208 2.687 2.686 4.23 6.297 5.008 10.315-2.767.23-5.443.878-7.966 1.812l-2.044.838c-.67.3-1.307.664-1.958.993-1.32.623-2.5 1.485-3.726 2.238-1.195.806-2.303 1.726-3.447 2.578l-3.18 2.855c-.175.158-.19.427-.032.602.144.16.384.187.558.067l.028-.02 3.453-2.36c1.216-.675 2.387-1.415 3.62-2.026 1.26-.557 2.462-1.222 3.764-1.632.643-.222 1.27-.48 1.917-.674l1.952-.512c2.533-.57 5.1-.824 7.6-.647.272 3.8.015 7.795-.5 11.62a25.29 25.29 0 0 0-2.636.205c-1.97.323-3.89.792-5.69 1.52-.917.31-1.767.788-2.64 1.17-.85.443-1.666.938-2.5 1.4-.242.136-.328.443-.192.685.12.214.372.306.596.232l.047-.016c.877-.288 1.735-.606 2.607-.865.89-.197 1.75-.487 2.644-.604 1.764-.346 3.546-.417 5.28-.37.642.04 1.276.115 1.905.2-1.66 9.128-4.468 16.49-4.468 16.49" class="D"/><path d="M467.204 371.662h5.313v-7.97h-5.313z" class="F"/><path d="M468.204 370.662h3.313v-5.97h-3.313v5.97zm4.312 2h-5.312a1 1 0 0 1-1-1v-7.97a1 1 0 0 1 1-1h5.312a1 1 0 0 1 1 1v7.97a1 1 0 0 1-1 1h0z" class="B"/><path d="M462.872 349.126h6.54l3.27 18.552h-6.54z" class="F"/><path d="M466.98 366.678h4.508l-2.917-16.552h-4.508l2.917 16.552zm5.7 2h-6.54a1 1 0 0 1-.985-.826l-3.27-18.552a1 1 0 0 1 .985-1.174h6.54a1 1 0 0 1 .985.826l3.27 18.552c.05.29-.03.6-.22.817a1 1 0 0 1-.766.357h0z" class="B"/><path d="M463.22 346.284l-32.657 17.41v2.28l4.766 1.704 27.89-14.87z" class="C"/><path d="M449.797 353.44c1.612.866 2.72 2.548 2.72 4.505 0 .207-.037.402-.06.602l10.763-5.738v-6.524l-13.422 7.155z" class="F"/><path d="M431.562 365.27l3.686 1.317 26.97-14.38v-4.257l-30.657 16.343v.976zm3.766 3.408a1 1 0 0 1-.336-.058l-4.767-1.704a1 1 0 0 1-.663-.941v-2.28a1 1 0 0 1 .53-.883l32.657-17.41a1.01 1.01 0 0 1 .985.025 1 1 0 0 1 .485.858v6.524a1 1 0 0 1-.529.883l-27.89 14.87c-.147.077-.308.117-.47.117h0z" class="B"/><path d="M435.328 367.678c0-2.2-1.784-3.984-3.984-3.984s-3.985 1.783-3.985 3.984 1.784 3.984 3.985 3.984 3.984-1.784 3.984-3.984" class="C"/><use xlink:href="#E" class="B"/><path d="M448.71 277.792c-2.523 0-4.698-1.766-5.203-4.237-1.45-7.108-4.118-21.885-4.118-34.44s2.668-27.33 4.118-34.438c.505-2.472 2.68-4.238 5.203-4.238h57.933c3.344 0 5.853 3.047 5.214 6.33-1.49 7.65-3.7 20.92-3.7 32.346s2.2 24.697 3.7 32.347c.64 3.283-1.87 6.33-5.214 6.33H448.71z" class="C"/><path d="M448.71 201.44a4.32 4.32 0 0 0-4.223 3.438c-1.53 7.5-4.098 21.92-4.098 34.238s2.567 26.74 4.098 34.238a4.32 4.32 0 0 0 4.223 3.438h57.933a4.3 4.3 0 0 0 4.232-5.138c-1.39-7.13-3.72-20.835-3.72-32.538s2.33-25.408 3.72-32.538a4.3 4.3 0 0 0-4.232-5.138H448.71zm57.933 77.352H448.71a6.33 6.33 0 0 1-6.183-5.038c-1.545-7.573-4.138-22.144-4.138-34.638s2.593-27.066 4.138-34.64c.596-2.92 3.196-5.037 6.183-5.037h57.933a6.29 6.29 0 0 1 4.872 2.297c1.203 1.46 1.686 3.364 1.323 5.224-1.375 7.058-3.682 20.622-3.682 32.155s2.307 25.097 3.682 32.155c.362 1.86-.12 3.764-1.323 5.224a6.29 6.29 0 0 1-4.872 2.297h0z" class="B"/><path d="M420.755 309.846h80.867a2 2 0 0 0 2-2v-5.63a6 6 0 0 0-6-6h-72.867a6 6 0 0 0-6 6v5.63a2 2 0 0 0 2 2" class="C"/><path d="M424.755 297.216c-2.757 0-5 2.243-5 5v5.63a1 1 0 0 0 1 1h80.867a1 1 0 0 0 1-1v-5.63c0-2.757-2.243-5-5-5h-72.867zm76.867 13.63h-80.867c-1.654 0-3-1.346-3-3v-5.63a7.01 7.01 0 0 1 7-7h72.867a7.01 7.01 0 0 1 7 7v5.63c0 1.654-1.346 3-3 3h0z" class="B"/><path d="M456.58 317.356h18.594v-7.51H456.58z" class="F"/><path d="M457.58 316.356h16.594v-5.51H457.58v5.51zm17.594 2H456.58a1 1 0 0 1-1-1v-7.5a1 1 0 0 1 1-1h18.594a1 1 0 0 1 1 1v7.5a1 1 0 0 1-1 1h0z" class="B"/><path d="M461.544 352.81h8.663v-35.452h-8.663z" class="C"/><path d="M467.204 324.784a6.63 6.63 0 0 1 3.003.721v-8.15h-8.663v10.587c1.175-1.893 3.267-3.16 5.66-3.16m3.003 28.028v-2l-4.67-2.595a1.05 1.05 0 0 0-1.558.916v3.688h6.23z" class="F"/><path d="M462.544 351.81h6.663v-33.452h-6.663v33.452zm7.663 2h-8.663a1 1 0 0 1-1-1v-35.453a1 1 0 0 1 1-1h8.663a1 1 0 0 1 1 1v35.453a1 1 0 0 1-1 1h0z" class="B"/><path d="M468.762 347.15l29.77 16.544v2.28l-4.766 1.703-26.563-14.87v-4.742a1.05 1.05 0 0 1 1.558-.917" class="C"/><path d="M468.207 352.224l25.652 14.36 3.674-1.313v-.988l-29.257-16.258c-.01-.005-.024-.013-.048.001l-.02 4.2zm25.56 16.454c-.17 0-.337-.043-.488-.127l-26.563-14.87a1 1 0 0 1-.512-.873v-4.742a2.03 2.03 0 0 1 3.043-1.791h.001l29.77 16.544c.318.176.514.5.514.874v2.28c0 .423-.265.8-.663.94l-4.766 1.704c-.1.04-.223.058-.337.058h0z" class="B"/><path d="M493.767 367.678c0-2.2 1.784-3.984 3.984-3.984s3.985 1.783 3.985 3.984-1.784 3.984-3.985 3.984-3.984-1.784-3.984-3.984" class="C"/><use xlink:href="#E" x="66.406" class="B"/><g class="C"><use xlink:href="#F"/><use xlink:href="#F"/></g><path d="M422.074 231.147c5.337 0 10.576-4.79 21.155-14.92 3.784-3.622 9.34-8.944 11.824-10.594 3.88.001 8.695.668 10.373.953 4.34.748 8.454-2.177 9.195-6.512a7.97 7.97 0 0 0-6.506-9.198c-.34-.057-8.37-1.417-14.932-1.143-5.118.215-9.567 4.057-20.977 14.983l-3.72 3.543c.65-6.012 1.788-13.414 3.046-19.893a7.97 7.97 0 0 0-6.303-9.341 7.97 7.97 0 0 0-9.342 6.302c-.072.37-1.772 9.157-2.896 18.252-1.373 11.1-3.082 24.935 6.88 27.3.746.177 1.477.267 2.205.267" class="D"/><g class="E"><path d="M430.325 214.607l5.265-5.013c11.688-11.193 18.213-17.13 23.672-19.67-2.277-.18-4.767-.29-7.08-.192-5.05.213-9.463 3.972-20.547 14.574-.516 3.596-.962 7.088-1.3 10.3"/><path d="M453.182 189.733c-4.96.2-9.3 3.844-19.96 14.014-.7 1.6-.47 2.27 1.434 1.264 7.614-4.025 22.385-8.974 28.385-7.974l1.984-6.613c-3-.4-7.716-.863-11.843-.7m-32.742 12.982c1.124-9.095 2.824-17.882 2.896-18.252.413-2.125 1.637-3.885 3.287-5.027-.445-.175-.9-.318-1.396-.4a7.97 7.97 0 0 0-9.341 6.301 302.55 302.55 0 0 0-2.897 18.252c-1.373 11.1-3.08 24.936 6.88 27.3a9.5 9.5 0 0 0 2.205.267c1.56 0 3.117-.423 4.798-1.256-9.453-2.677-7.784-16.237-6.432-27.175"/></g><path d="M425.134 231.856a10.42 10.42 0 0 1-2.436-.294c-10.832-2.57-9.063-16.9-7.64-28.394 1.132-9.16 2.835-17.953 2.907-18.323a8.91 8.91 0 0 1 3.788-5.723c1.987-1.34 4.376-1.827 6.727-1.37a8.98 8.98 0 0 1 7.094 10.513c-1.072 5.52-2.053 11.71-2.717 17.08l1.72-1.643c11.61-11.12 16.16-15.03 21.626-15.26 6.505-.273 14.277 1 15.142 1.156 4.87.838 8.156 5.482 7.324 10.352a8.92 8.92 0 0 1-3.666 5.817 8.88 8.88 0 0 1-6.685 1.513 1 1 0 0 1-.816-1.155c.094-.544.61-.907 1.156-.816 1.83.313 3.673-.1 5.2-1.175 1.523-1.076 2.535-2.682 2.85-4.52a6.98 6.98 0 0 0-5.689-8.043c-.335-.058-8.314-1.4-14.722-1.13-4.77.2-9.12 3.974-20.326 14.707l-.17.163-3.557 3.386c-.305.286-.756.353-1.13.167a1 1 0 0 1-.549-1.003c.646-5.974 1.8-13.442 3.06-19.977a6.98 6.98 0 0 0-5.513-8.169c-1.827-.355-3.683.022-5.226 1.064s-2.59 2.62-2.943 4.447c-.072.367-1.763 9.096-2.886 18.185-1.324 10.714-2.97 24.047 6.118 26.205.68.16 1.326.24 1.974.24 4.6 0 9.333-4.037 18.333-12.606l2.13-2.035a1 1 0 0 1 1.384 1.444l-2.135 2.04c-9.394 8.943-14.4 13.157-19.712 13.157" class="B"/><path d="M525.935 216.14c-27.34 9.07-38.847-14.828-39.595-20.206l-4.346 4.07c.748 5.378 12.254 29.28 39.595 20.207 6-2 10.672-5.21 14.108-9.145-2.747 2.09-5.994 3.825-9.762 5.075" class="G"/><use xlink:href="#G" class="C"/><use xlink:href="#G" x="-3" class="E"/><path d="M523.958 215.516c-27.34 9.07-38.847-14.83-39.594-20.207l-1.2-59.734c.513-1.274 1.27-2.56 2.213-3.782-3.62 2.086-6.314 5.327-7.58 8.477l1.2 59.734c.747 5.378 12.254 29.28 39.594 20.207 5.848-1.94 10.435-5.05 13.846-8.848-2.46 1.68-5.28 3.09-8.477 4.153" class="G"/><path d="M509.84 223.26c-5.418 0-10.413-1.408-14.937-4.22-9.416-5.853-13.484-15.9-13.9-18.897a1 1 0 0 1 .852-1.128c.548-.084 1.052.306 1.13.852.366 2.64 4.273 12.065 12.975 17.474 7.183 4.467 15.7 5.113 25.313 1.922 10.755-3.567 15.815-10.606 18.167-15.88 3.398-7.62 3.38-16.855-.046-24.702-6.26-14.336-21.372-16.765-24.337-17.107-1.387-.16-2.546-.897-3.262-2.077-.788-1.297-1.398-3.702.165-7.795 1.483-3.882 1.152-8.38-.91-12.342-2.188-4.206-5.947-7.164-10.584-8.33-9.318-2.346-16.57 4.21-18.745 9.616a1 1 0 1 1-1.856-.746c2.445-6.077 10.603-13.448 21.09-10.8 5.2 1.308 9.414 4.628 11.87 9.348 2.324 4.47 2.7 9.563 1.004 13.978-1.342 3.513-.78 5.295-.325 6.044.395.65 1.01 1.04 1.78 1.13 3.157.363 19.243 2.952 25.942 18.292 3.702 8.48 3.716 18.07.04 26.318-2.516 5.643-7.917 13.167-19.364 16.964-4.218 1.4-8.245 2.1-12.062 2.1" class="B"/><path d="M484.566 178.726c1.866-1.928 3.645-3.277 5.356-3.366s5.16-2.128 5.508-5.392-1.558-6.14-4.254-6.428c0 0-8.308 16.94-6.6 15.186" class="G"/><path d="M440.612 224.247c.663 7.857 11.83 13.33 24.94 12.225s23.202-8.372 22.54-16.23-11.83-13.33-24.94-12.224-23.202 8.372-22.54 16.23" class="C"/><path d="M461.536 195.682s1.992 1.106 7.666 1.106 7.188-1.77 7.188-1.77l.477-16.38-11.545.774-3.786 16.27z" class="D"/><path d="M462.708 195.058c.962.293 2.988.73 6.494.73 3.872 0 5.61-.862 6.2-1.254l.433-14.826-9.708.652-3.42 14.698zm6.494 2.73c-5.766 0-7.924-1.106-8.15-1.232a1 1 0 0 1-.489-1.101l3.786-16.27a1 1 0 0 1 .907-.772l11.545-.774c.28-.02.558.082.76.277s.314.468.306.75l-.478 16.38c-.006.23-.09.448-.24.62-.186.217-1.987 2.12-7.948 2.12h0z" class="B"/><path d="M451.605 168.818c2.586-6.27 3.147-10.555 3.752-15.397s6.2-16.198 18.62-15.87c11.626.308 21.35 10.015 18.004 24.47-3.064 13.24-13.86 24.294-27.023 24.532s-15.798-11.805-13.352-17.735" class="C"/><path d="M449.1 168.818c2.586-6.27 3.147-10.555 3.752-15.397s6.2-16.198 18.62-15.87c11.626.308 21.35 10.015 18.004 24.47-3.065 13.24-13.86 24.294-27.023 24.532s-15.798-11.805-13.352-17.735" class="H"/><path d="M469.6 184.637c-13.165.238-15.798-11.805-13.352-17.735 2.587-6.27 3.147-10.554 3.752-15.397.442-3.534 3.54-10.53 10.01-13.93-11.404.558-16.576 11.2-17.157 15.846-.605 4.843-1.166 9.128-3.752 15.398-2.446 5.93.187 17.973 13.352 17.735 3.28-.06 6.414-.79 9.317-2.06a23.55 23.55 0 0 1-2.169.143" class="D"/><path d="M452.53 169.2c-1.188 2.882-1.084 7.714 1.414 11.375 1.593 2.333 4.793 5.095 10.995 4.98 11.97-.216 22.93-10.208 26.067-23.757 1.444-6.24.396-12.056-2.95-16.382-3.257-4.2-8.4-6.71-14.106-6.86-11.95-.352-17.086 10.878-17.6 14.992-.6 4.716-1.146 9.173-3.82 15.654m12.04 18.358c-6.83 0-10.443-3.168-12.277-5.856-3.033-4.444-2.96-9.99-1.61-13.264 2.572-6.234 3.112-10.56 3.684-15.14.674-5.39 6.55-17.074 19.638-16.744 6.3.167 12.01 2.95 15.634 7.637 3.72 4.8 4.9 11.222 3.318 18.057-3.34 14.43-15.107 25.073-27.98 25.306l-.406.004" class="B"/><g class="C"><path d="M431.727 275.06c-1.596 10.628 11.717 21.437 29.735 24.142s33.917-3.716 35.513-14.343-11.716-21.437-29.734-24.142-33.918 3.716-35.514 14.343"/><path d="M368.585 354.003l44.4-60.13 32.46-4.87a9.14 9.14 0 0 0 7.68-10.39c-.74-4.948-5.327-8.37-10.268-7.698l-36.676 4.998c-2.622.357-4.83 1.882-6.158 3.945l-42.4 66.63c-1.97 3.096-1.057 7.203 2.04 9.173 2.96 1.883 6.854 1.114 8.912-1.658"/><path d="M492.438 268.04s-19.65-5.615-54.453-4.637l-5.713 7.977s-6.088-1.682-9.303.422-4.214 2.397-4.214 2.397l-10.817 1.474s-5.452.33-9.58 6.816l-41.14 64.772 10.78 7.423 44.997-60.812 5.758-.864 16.987 72.012h15.32l.153-4.74-10.97-63.607s28.647 3.84 34.313 4.072S498.9 297.18 497.1 283s-4.663-14.97-4.663-14.97"/><use xlink:href="#H"/><use xlink:href="#H"/></g><path d="M360.152 357.148c3.693 0 7.335-1.706 9.674-4.92l41.472-56.874c.51-.7 1.312-1.106 2.2-1.068l46.273 1.712c6.564.246 12.142-4.908 12.386-11.504s-4.906-12.144-11.503-12.388l-46.272-1.712c-8.83-.313-17.214 3.747-22.413 10.894l-41.47 56.873c-3.885 5.337-2.707 12.814 2.63 16.7 2.123 1.545 4.585 2.288 7.024 2.29" class="I"/><path d="M359.133 342.35l41.47-56.873c5.2-7.147 13.584-11.207 22.413-10.894l46.27 1.712c-2.095-2.45-5.16-4.06-8.635-4.188l-46.272-1.712c-8.83-.314-17.214 3.747-22.414 10.893l-41.47 56.874c-3.885 5.336-2.707 12.814 2.63 16.7a11.9 11.9 0 0 0 6.582 2.272c-3.508-4.11-3.895-10.223-.577-14.783" class="J"/><g class="B"><path d="M415.998 272.85a25.5 25.5 0 0 0-20.651 10.498l-41.47 56.874a10.88 10.88 0 0 0 2.411 15.302c1.884 1.37 4.1 2.097 6.436 2.097a11 11 0 0 0 8.866-4.508l41.47-56.875c.713-.978 1.853-1.518 3.05-1.48l46.266 1.712c2.915.116 5.7-.928 7.847-2.92s3.396-4.7 3.504-7.62a10.88 10.88 0 0 0-2.92-7.859c-1.99-2.145-4.697-3.385-7.62-3.493l-47.19-1.728m-53.275 86.77h-.001c-2.752 0-5.384-.858-7.612-2.48a12.87 12.87 0 0 1-5.173-8.458c-.54-3.418.286-6.84 2.322-9.64l41.47-56.873c5.387-7.404 14.083-11.634 23.257-11.303l46.274 1.71a12.87 12.87 0 0 1 9.013 4.13c2.354 2.537 3.58 5.837 3.452 9.295a12.86 12.86 0 0 1-4.142 9.014c-2.54 2.354-5.836 3.598-9.28 3.45l-46.272-1.712c-.54-.02-1.033.217-1.354.658l-41.472 56.874a13 13 0 0 1-10.482 5.332"/><use xlink:href="#I"/><use xlink:href="#I" x="-15.57"/><path d="M466.033 174.235a6.63 6.63 0 0 1-6.629-6.629h13.258a6.63 6.63 0 0 1-6.629 6.629"/><path d="M460.493 168.606a5.64 5.64 0 0 0 5.54 4.629 5.64 5.64 0 0 0 5.54-4.629h-11.08zm5.54 6.63a7.64 7.64 0 0 1-7.629-7.629 1 1 0 0 1 1-1h13.258a1 1 0 0 1 1 1 7.64 7.64 0 0 1-7.629 7.629h0zm13.267-15.75a.96.96 0 0 1-.13-.009 1 1 0 0 1-.863-1.117c.02-.155.442-3.812-2.2-4.473a1 1 0 0 1-.728-1.212c.134-.537.676-.864 1.213-.727 3.497.873 3.947 4.743 3.697 6.667a1 1 0 0 1-.99.871m-23.066-.86a1.02 1.02 0 0 1-.173-.015 1 1 0 0 1-.813-1.156c.537-3.092 3.255-5.274 5.233-5.1a1 1 0 0 1 .905 1.086c-.05.55-.537.97-1.087.906-.726-.063-2.7 1.203-3.08 3.45a1 1 0 0 1-.984.829"/></g><g class="C"><path d="M452.594 204.148c-4.146 5.303-11.536 12.96-11.917 18.096-.732 9.847 4.114 21.583 2.786 29.717s-10.52 16.815-11.19 20.94-2.618 19.248 29.19 26.298 36.384-12.064 35.64-16.19-11.468-21.75-12.132-34.534 3.59-22.93 3.122-28.233"/><use xlink:href="#J"/></g><use xlink:href="#J" x="1.71" y="2.135" fill="#bdf3ff"/><path d="M441.078 264.116c28.312-.807 43.996 1.662 52.58 4.19 3.026 7.068 3.046 12.51 3.442 14.705.744 4.127-1.795 22.853-33.602 15.803s-28.703-21.22-28.03-25.346c.348-2.133 2.972-5.488 5.6-9.35" class="C"/><path d="M482.393 248.476c.333 6.416 3.2 14.052 6.07 20.59-8.308-2.342-26.237-6.036-53.662-4.775 2.623-3.788 5.403-8.127 6.088-12.328 1.328-8.134-3.517-19.87-2.786-29.717.38-5.136 7.77-12.793 11.917-18.096 0 0 7.877-5.757 19.777-1.937s15.72 18.03 15.72 18.03c.466 5.3-3.787 15.45-3.123 28.233" class="D"/><g class="E"><path d="M438.565 254.892c-1.092 3.548-3.387 7.115-5.588 10.295 27.425-1.263 45.353 2.432 53.662 4.773-1.55-3.53-3.095-7.383-4.245-11.19-8.713-2.043-23.334-4.35-43.83-3.877"/><path d="M434.8 264.3l9.103-.242c2.574-3.732 5.252-7.974 5.923-12.086 1.328-8.135-3.517-19.87-2.786-29.717.234-3.16 3.12-7.27 6.27-11.202 2.227-2.777.27-6.895-3.3-6.895-4.146 5.303-11.535 12.96-11.917 18.097-.73 9.847 4.115 21.582 2.786 29.717-.685 4.2-3.465 8.54-6.088 12.328m15.437-.212c18.818.386 31.594 3.107 38.224 4.977l-.973-2.268c-8.7-1.613-21.138-3.018-37.25-2.7"/></g><path d="M464.19 298.895c6.377-6.152 9.643-23 1.065-23.943l-35.074-4.02 3.41-6.64s45.108.087 57.783 3.698c0 0 6.005 23.785-7.387 31.16 0 0-13.22 1.348-19.796-.255" class="J"/><path d="M482.392 248.476c-.664-12.783 3.59-22.932 3.123-28.233 0 0-3.82-14.21-15.72-18.03-2.67-.856-5.123-1.214-7.343-1.28-1.102 8.235-.408 14.194 5.17 17.94 5.836 3.917 6.543 16.834 2.73 19.25s-3.566 17.667-2.73 21.084c.44 1.795 10.343 4.696 19.64 7.044-2.422-5.844-4.582-12.258-4.87-17.773" class="E"/><path d="M474.855 298.994c-4.118 0-8.99-.525-14.75-1.802-31.785-7.045-29.677-19.41-28.884-24.066l.065-.385c.316-1.94 2.052-4.42 4.25-7.56 2.763-3.945 6.2-8.856 6.94-13.38.654-4.002-.267-8.995-1.24-14.282-.944-5.126-1.92-10.425-1.556-15.35.327-4.4 5.062-10.08 9.24-15.103l2.887-3.535a1 1 0 1 1 1.576 1.233c-.87 1.11-1.868 2.31-2.925 3.582-3.79 4.553-8.504 10.22-8.783 13.97-.347 4.666.606 9.838 1.528 14.84 1.007 5.462 1.957 10.62 1.248 14.966-.813 4.975-4.396 10.094-7.276 14.206-1.89 2.696-3.672 5.243-3.915 6.734l-.067.4c-.706 4.14-2.582 15.144 27.345 21.777 17.99 3.99 26.743.466 30.918-3.2 3.91-3.424 4.67-7.608 4.503-9.54-.755-8.76-3.732-13.93-6.612-18.93-2.597-4.51-5.05-8.77-5.377-15.052-.4-7.696.937-14.368 2.01-19.73.693-3.46 1.292-6.45 1.114-8.468a1 1 0 0 1 .909-1.084c.552-.055 1.035.358 1.084.908.202 2.305-.393 5.276-1.146 9.037-1.052 5.25-2.36 11.786-1.975 19.233.302 5.8 2.532 9.674 5.113 14.157 2.85 4.947 6.08 10.555 6.872 19.756.2 2.307-.668 7.266-5.178 11.217-3.137 2.747-8.593 5.44-17.918 5.44" class="B"/><path d="M470.75 247.44h26.472c2.593 0 5.024-1.263 6.517-3.383a7.97 7.97 0 0 0 .984-7.276c-4.73-13.195-13.136-36-16.275-40.464-4.4-6.255-21.747 7.568-17.354 7.14 1.902-.173 3.192.43 4.317 2.028 1.304 2.114 5.855 13.7 10.42 26.017H470.75a7.97 7.97 0 0 0-7.969 7.968 7.97 7.97 0 0 0 7.969 7.97" class="C"/><path d="M467.986 248.676h26.472c2.593 0 5.024-1.263 6.517-3.383a7.97 7.97 0 0 0 .984-7.276c-4.73-13.195-13.136-36-16.275-40.464-4.4-6.255-21.747 7.568-17.354 7.14 1.902-.173 3.192.43 4.317 2.028 1.304 2.114 5.855 13.7 10.422 26.017h-15.083a7.97 7.97 0 0 0-7.969 7.969 7.97 7.97 0 0 0 7.969 7.969" class="D"/><path d="M468.33 204.692c1.903-.173 3.192.43 4.317 2.028 1.088 1.764 6.238 14.95 9.968 24.822h6.064c-4.566-12.32-10.92-28.734-12.223-30.848-.724-1.027-1.518-1.64-2.497-1.902-4.46 2.64-7.867 6.12-5.63 5.9m29.937 37.958h-26.472a7.97 7.97 0 0 1-7.968-7.969 8.14 8.14 0 0 1 .039-.785c-2.304 1.397-3.848 3.92-3.848 6.812a7.97 7.97 0 0 0 7.969 7.968h26.47a7.97 7.97 0 0 0 6.517-3.382c.802-1.14 1.268-2.454 1.402-3.802a7.94 7.94 0 0 1-4.1 1.158" class="E"/><path d="M497.223 248.44H470.75c-4.945 0-8.97-4.023-8.97-8.97a8.98 8.98 0 0 1 8.969-8.968h13.644c-4.82-12.954-8.74-22.718-9.834-24.492a1 1 0 1 1 1.702-1.05c1.472 2.386 6.394 15.095 10.508 26.194a1 1 0 0 1-.116.919c-.187.268-.494.43-.82.43H470.75a6.98 6.98 0 0 0-6.969 6.968 6.98 6.98 0 0 0 6.969 6.97h26.472a6.98 6.98 0 0 0 6.56-9.321c-4.715-13.15-13.083-35.86-16.152-40.227-4.185-5.95-10.72-8.98-17.926-8.307a1 1 0 1 1-.185-1.993c7.94-.73 15.138 2.597 19.747 9.15 3.044 4.33 10.598 24.523 16.4 40.7.983 2.744.57 5.806-1.108 8.19a8.98 8.98 0 0 1-7.335 3.808" class="B"/><path d="M496.66 210.648s-4.87 6.264-13.494 6.332-17.88-8.33-17.544-17.01 6.678-17.826 16.76-18.058c3.246-.075 6.027.658 8.355 1.818l9.974 7.842-4.05 19.077z" class="E"/><path d="M487.907 213.463c-8.623.067-17.88-8.33-17.544-17.01.173-4.48 1.96-9.078 5.024-12.517-7.824 2.126-12.623 9.98-12.914 17.495-.335 8.68 8.922 17.078 17.544 17.01 7.1-.057 11.647-4.305 13.036-5.807-1.528.486-3.24.814-5.146.83" class="G"/><path d="M483.065 217.98c-4.643 0-9.627-2.285-13.354-6.13-3.39-3.496-5.245-7.84-5.087-11.92.354-9.156 7.085-18.773 17.735-19.02 3.15-.08 6.117.574 8.824 1.923a1 1 0 1 1-.892 1.791 16.36 16.36 0 0 0-7.886-1.714c-9.474.217-15.464 8.864-15.782 17.097-.137 3.535 1.512 7.344 4.523 10.45 3.358 3.463 7.806 5.522 11.918 5.522h.095c8.01-.063 12.668-5.89 12.714-5.947a1 1 0 0 1 1.403-.172 1 1 0 0 1 .174 1.401c-.21.27-5.27 6.647-14.275 6.718h-.1z" class="B"/><path d="M490.518 163.576c-2.93-.95 2.198-16.3-8.295-24.074 0 0-.048-3.56 1.78-4.212s15.29 10.9 15.29 10.9l2.455 9.294-1.728 8.08s-6.14 1.1-9.5.01" class="E"/><path d="M441.288 272.145c-4.4-.417-7.562-1.383-12.578 0s-3.89 17.125-3.89 17.125l12.86 4.465 6.483-.604s1.245-12.3.802-13.173-3.675-7.813-3.675-7.813" class="C"/><path d="M442.626 274.42c-4.4-.417-7.562-1.383-12.578 0s-8.458 6.844-8.458 6.844l2.185 14.092 15.24.655 6.483-.604s1.245-12.3.802-13.173-3.675-7.814-3.675-7.814" class="I"/><path d="M226.808 260.097h313.444v-10.625H226.808z" class="F"/><g class="C"><path d="M540.252 260.097h95.627v-10.625h-95.627z"/><path d="M540.252 371.662h95.627V260.097h-95.627z"/></g><path d="M529.627 371.662h10.625V260.097h-10.625z" class="F"/><path d="M237.433 371.662h95.627V260.097h-95.627z" class="C"/><g class="F"><path d="M237.433 260.097h95.627l-95.627 111.565z"/><path d="M226.808 371.662h10.625V260.097h-10.625z"/></g><g class="B"><path d="M227.808 259.097h311.444v-8.625H227.808v8.625zm312.444 2H226.808a1 1 0 0 1-1-1v-10.625a1 1 0 0 1 1-1h313.444a1 1 0 0 1 1 1v10.625a1 1 0 0 1-1 1h0z"/><path d="M541.252 259.097h93.627v-8.625h-93.627v8.625zm94.627 2h-95.627a1 1 0 0 1-1-1v-10.625a1 1 0 0 1 1-1h95.627a1 1 0 0 1 1 1v10.625a1 1 0 0 1-1 1h0z"/><use xlink:href="#K"/><use xlink:href="#L"/><use xlink:href="#K" x="-302.819"/><use xlink:href="#L" x="-302.819"/><path d="M339.7 372.662H220.167a1 1 0 1 1 0-2H339.7a1 1 0 1 1 0 2"/><path d="M643.848 372.662H214.295a1 1 0 1 1 0-2h429.553a1 1 0 1 1 0 2"/></g><use xlink:href="#M" class="C"/><use xlink:href="#M" x="-3.273" class="I"/><g class="J"><path d="M436.436 358.176l-13.9-66.34a16.99 16.99 0 0 1 4.049-14.881c2.303-2.53 5.302-4.27 8.555-5.056l-3.28-.37a16.96 16.96 0 0 0-14.421 5.426c-3.648 4-5.162 9.573-4.05 14.88l13.9 66.34a11.96 11.96 0 0 0 11.687 9.502c.814 0 1.64-.083 2.466-.257a11.97 11.97 0 0 0 2.123-.663c-3.52-1.462-6.287-4.57-7.13-8.582m11.478-61.81l.222 1.06 21.4 2.5c2.98.374 5.736.32 8.278-.1l-29.9-3.45"/><path d="M464.19 298.895c6.377-6.152 9.643-23 1.065-23.943s13.443-10.574 26.118-6.963c0 0 8.092 23.636-7.387 31.16 0 0-13.22 1.348-19.796-.255"/></g><path d="M442.25 368.678c-6.088 0-11.414-4.33-12.666-10.297l-13.9-66.34a18 18 0 0 1 4.288-15.759c3.864-4.246 9.572-6.394 15.273-5.747l5.507.62 24.62 2.802a1 1 0 1 1-.231 1.987l-30.12-3.422a15.94 15.94 0 0 0-13.569 5.105 15.99 15.99 0 0 0-3.811 14.003l13.9 66.34a11 11 0 0 0 10.708 8.707c.756 0 1.517-.08 2.26-.235 5.91-1.24 9.712-7.06 8.473-12.97l-11.92-56.9a1 1 0 0 1 .239-.878c.216-.238.532-.36.852-.322l30.8 3.56c6.964.87 12.69-.526 17.016-4.158 6.33-5.313 6.14-10.716 5.402-15.795a1 1 0 0 1 .846-1.133c.548-.087 1.054.3 1.134.846.782 5.39 1.02 11.64-6.096 17.613-4.77 4.006-11.012 5.558-18.55 4.61l-29.39-3.402 11.637 55.548c1.466 7-3.03 13.87-10.02 15.337a13.05 13.05 0 0 1-2.671.278" class="B"/><path d="M429.02 361.37h24.207c1.24 0 2.245 1.005 2.245 2.244v4.85a3.2 3.2 0 0 1-3.199 3.2H429.02V361.37z" class="C"/><path d="M430.02 370.662h22.253c1.213 0 2.2-.987 2.2-2.2v-4.85c0-.685-.558-1.244-1.245-1.244H430.02v8.293zm22.253 2H429.02a1 1 0 0 1-1-1V361.37a1 1 0 0 1 1-1h24.207a3.25 3.25 0 0 1 3.245 3.244v4.85c0 2.316-1.884 4.2-4.2 4.2h0z" class="B"/><path d="M434.492 359.403l-3.148.607c-10.508.836-12.52 8.975-12.52 8.975 0 1.48 3.094 2.677 4.572 2.677h18.574v-5.504c0-4.296-3.18-6.755-7.477-6.755" class="C"/><path d="M441.97 372.662H421.5a3.68 3.68 0 0 1-3.676-3.677c0-1.54 1.098-3.246 3.093-4.8 4.13-3.217 12.163-5.774 20.04-3.786a1 1 0 0 1 .725 1.215c-.135.535-.68.857-1.214.725-7.227-1.824-14.565.495-18.323 3.425-1.454 1.132-2.322 2.336-2.322 3.22a1.68 1.68 0 0 0 1.676 1.677h20.47a1 1 0 1 1 0 2m-90.42-30.01c.026.958 2.307 4.313 7.194 8.244s8.653 5.444 9.595 5.26c-.026-.96-2.306-4.315-7.193-8.245h-.001c-4.886-3.932-8.65-5.447-9.595-5.26m16.687 15.478c-2.852.001-7.784-3.3-10.747-5.675-2.52-2.028-4.702-4.185-6.144-6.075-1.774-2.327-2.228-3.965-1.388-5s2.537-.95 5.2.282c2.156 1.003 4.73 2.672 7.25 4.7h0c2.52 2.028 4.702 4.185 6.144 6.075 1.774 2.328 2.228 3.966 1.4 5-.4.485-.977.693-1.695.693" class="B"/><path d="M359.187 363.943l-19.952-16.464c-3.345-2.643-12.97-6.262-10.766-8.627 4.565-4.897 17.775.053 21.676 3.622.724.662.588-.975 2.996.402 4.846 2.77 13.422 8.996 14.032 9.44.913.664 1.18 4.752-.633 7.678-2.35 3.796-5.616 5.224-7.353 3.95" class="C"/><path d="M360.974 365.687a3.42 3.42 0 0 1-2.053-.666l-20.306-16.757c-1.008-.796-2.667-1.71-4.423-2.68-4.175-2.302-6.73-3.833-7.022-5.652-.102-.643.094-1.253.567-1.76 5.096-5.465 19.444-.063 23.717 3.844a1 1 0 1 1-1.35 1.477c-3.718-3.403-16.9-8.25-20.904-3.957-.074.97 4 3.218 5.958 4.298 1.83 1.01 3.56 1.963 4.697 2.863 3.317 2.62 20.128 16.61 20.297 16.75.312.224.755.302 1.27.2 1.38-.3 2.965-1.844 4.244-4.13 1.534-2.743 1.803-5.15 1.512-5.616-.447-.325-.517-.923-.192-1.37s.98-.517 1.425-.192c1.644 1.195.712 5.092-1 8.154-1.6 2.862-3.576 4.677-5.564 5.108a4.1 4.1 0 0 1-.874.097" class="B"/><path d="M328.902 339.18c-2.265 2.307 4.925 7.72 8.27 10.363s19.422 12.974 19.422 12.974c1.737 1.274 4.844 3.654 6.902.896 1.81-2.423-3.008-5.758-3.92-6.422s-6.815-4.004-9.095-5.885c-4.28-3.53-19.292-14.253-21.578-11.926" class="F"/><path d="M329.606 339.9c-.1.097-.15.205-.136.408.13 2.02 5.264 6.056 7.73 7.995l.6.466c3.268 2.583 19.182 12.814 19.343 12.916l.17.123c2.516 1.848 4.204 2.605 5.4 1.018a.96.96 0 0 0 .189-.774c-.113-.734-.86-2.05-3.78-4.158l-.117-.085c-.26-.187-1.093-.693-2.06-1.28-2.18-1.32-5.477-3.318-7.083-4.643-6.344-5.234-18.48-12.953-20.238-11.987m31.604 25.794c-1.995 0-4-1.482-5.1-2.274l-.117-.086c-.607-.4-16.107-10.353-19.452-12.996l-.586-.462c-4.376-3.44-8.318-6.75-8.5-9.44-.05-.75.198-1.422.714-1.947h0c1.016-1.034 3.152-1.414 11.28 3.617 4.844 2.998 9.715 6.645 11.646 8.238 1.494 1.233 4.716 3.184 6.847 4.476l2.2 1.372.1.08c1.042.752 4.213 3.04 4.587 5.478a2.96 2.96 0 0 1-.564 2.271c-.92 1.233-2 1.673-3.087 1.673m7.964-7.883a1 1 0 0 1-.779-1.626c.12-.715-2.14-4.183-7.227-8.272s-8.96-5.564-9.696-5.23c-.346.43-.943.47-1.373.123s-.465-1.004-.12-1.434c.84-1.043 2.538-.952 5.2.282 2.156 1.003 4.73 2.672 7.25 4.7s4.703 4.185 6.144 6.075c1.774 2.327 2.23 3.966 1.4 5a1 1 0 0 1-.78.373" class="B"/><path d="M456.69 233.534h13.62a4 4 0 0 1 4 4v4.354a4 4 0 0 1-4 4h-13.62a4 4 0 0 1-4-4v-4.354a4 4 0 0 1 4-4" class="H"/><path d="M470.308 233.534h-3a4 4 0 0 1 4 4v4.354a4 4 0 0 1-4 4h3a4 4 0 0 0 4-4v-4.354a4 4 0 0 0-4-4" class="C"/><path d="M456.69 234.534c-1.654 0-3 1.346-3 3v4.354c0 1.654 1.346 3 3 3h13.62c1.654 0 3-1.346 3-3v-4.354c0-1.654-1.346-3-3-3h-13.62zm13.62 12.354h-13.62a5.01 5.01 0 0 1-5-5v-4.354c0-2.757 2.243-5 5-5h13.62c2.757 0 5 2.243 5 5v4.354a5.01 5.01 0 0 1-5 5h0z" class="B"/><path d="M457.898 241.503c3.084 0 5.76 1.752 7.084 4.315.86 1.667-.423 3.654-2.3 3.654h-9.57c-1.876 0-3.16-1.988-2.3-3.654a7.97 7.97 0 0 1 7.084-4.315" class="C"/><path d="M457.898 242.503a6.95 6.95 0 0 0-6.195 3.774c-.236.456-.214.978.062 1.43a1.57 1.57 0 0 0 1.348.764h9.57c.553 0 1.057-.285 1.348-.764.276-.452.298-.974.063-1.43a6.95 6.95 0 0 0-6.196-3.774m4.785 7.97h-9.57c-1.257 0-2.4-.645-3.056-1.725-.638-1.047-.687-2.313-.13-3.388a8.94 8.94 0 0 1 15.944 0c.556 1.076.507 2.342-.13 3.39-.657 1.08-1.8 1.724-3.056 1.724" class="B"/><g class="H"><use xlink:href="#N"/><use xlink:href="#N"/></g><path d="M452.915 243.862c-.027-2.66 1.372-5.878 3.484-8.012.452-.457.924-.84 1.407-1.165-.608-.7-1.495-1.15-2.495-1.15-1.714 0-3.412.802-4.912 2.316-2.112 2.134-3.51 5.353-3.484 8.012a3.32 3.32 0 0 0 3.32 3.285h.035c1.318-.014 2.44-.8 2.963-1.918-.195-.417-.313-.877-.318-1.367" class="D"/><path d="M453.28 248.148c-2.403 0-4.34-1.918-4.365-4.274-.03-2.9 1.486-6.415 3.773-8.726 1.693-1.7 3.637-2.613 5.622-2.613h4.074a1 1 0 1 1 0 2H458.3c-1.44 0-2.892.698-4.2 2.02-1.935 1.955-3.22 4.888-3.194 7.298.013 1.266 1.053 2.295 2.32 2.295 1.304-.014 2.335-1.065 2.32-2.346-.013-1.24.886-2.972 1.797-3.935a.99.99 0 0 1 .945-.692h.013l.08.003a.99.99 0 0 1 1.005.496 1.01 1.01 0 0 1-.369 1.365c-.42.248-1.48 1.892-1.47 2.743.025 2.383-1.893 4.34-4.275 4.366" class="B"/><path d="M467.912 247.66c-1.467 0-2.656-1.19-2.656-2.656 0-5.047 3.526-7.514 5.61-8.175 1.4-.44-.297 5.874-.297 8.175 0 1.467-1.19 2.656-2.656 2.656" class="H"/><path d="M467.912 248.66a3.66 3.66 0 0 1-3.656-3.656c0-1.667.353-3.205 1.048-4.57.25-.49.853-.686 1.346-.436a1 1 0 0 1 .436 1.345c-.55 1.082-.83 2.313-.83 3.662a1.66 1.66 0 0 0 1.656 1.656 1.66 1.66 0 0 0 1.656-1.656 1 1 0 1 1 2 0 3.66 3.66 0 0 1-3.656 3.656" class="B"/><path d="M464.61 247.294c-1.467 0-2.656-1.19-2.656-2.656 0-5.047 3.526-7.514 5.61-8.176a2.66 2.66 0 0 1 3.336 1.728c.445 1.398-.33 2.892-1.727 3.336-.28.102-1.906.81-1.906 3.112 0 1.467-1.19 2.656-2.656 2.656" class="H"/><use xlink:href="#O" class="B"/><path d="M460.68 246.98c-1.467 0-2.656-1.19-2.656-2.656 0-5.047 3.526-7.514 5.61-8.175a2.66 2.66 0 0 1 3.336 1.727c.445 1.398-.33 2.892-1.727 3.336-.28.103-1.906.81-1.906 3.112 0 1.467-1.19 2.656-2.656 2.656" class="H"/><use xlink:href="#O" x="-3.93" y="-0.314" class="B"/><path d="M421.95 184.815l3.11-13.845a4.54 4.54 0 0 1 5.244-3.469l3.144.573a4.54 4.54 0 0 1 3.588 5.565l-.918 3.67a7.46 7.46 0 0 1-1.094 2.424l-3.202 6.34s-1.78.965-4.78.965-5.092-2.223-5.092-2.223" class="H"/><path d="M425.95 185.815l3.11-13.845c.433-1.926 2.04-3.276 3.908-3.494-.644-.702-1.506-1.217-2.52-1.402l-3.144-.573a4.54 4.54 0 0 0-5.244 3.469l-3.11 13.845s2.092 2.223 5.092 2.223a13.11 13.11 0 0 0 1.983-.148l-.075-.075" class="D"/><path d="M423.048 184.483c.538.45 1.714 1.24 3.612 1.552 2.145.35 3.83-.383 4.404-.682l3.066-6.07a.91.91 0 0 1 .069-.116c.44-.64.758-1.345.947-2.1l.918-3.67c.24-.96.076-1.945-.46-2.775s-1.366-1.387-2.34-1.565l-3.144-.573a3.53 3.53 0 0 0-4.088 2.705l-2.986 13.294zm4.77 3.646a9.02 9.02 0 0 1-1.482-.122c-3.423-.56-5.08-2.463-5.148-2.543a1 1 0 0 1-.215-.868l3.1-13.844c.653-2.91 3.464-4.777 6.398-4.235l3.144.573a5.56 5.56 0 0 1 3.661 2.448c.826 1.28 1.088 2.865.718 4.343l-.918 3.67a8.44 8.44 0 0 1-1.201 2.692l-3.172 6.28c-.08.156-.197.29-.344.385-.088.057-1.895 1.22-4.55 1.22h0z" class="B"/><path d="M433.053 183.633c.857-1.076 5.6-4.613 6.082-5.86s.37-2.984-1.164-3.444l-4.26-1.17c-.706-.082-2.81-.08-3.155 1.855s.924 3.104 2.31 3.272l-1.308 2.318-.582 2.852 2.077.175z" class="H"/><path d="M437.97 174.33l-4.26-1.17c-.384-.044-1.178-.052-1.88.25l3.14.92c1.534.46 1.644 2.197 1.163 3.443-.37.96-3.272 3.282-4.975 4.788l-.183.898 2.077.174c.857-1.076 5.6-4.614 6.08-5.86s.37-2.983-1.163-3.443" class="C"/><path d="M432.048 186.622a.99.99 0 0 1-.45-.107 1 1 0 0 1-.442-1.344l1.005-1.99a.99.99 0 0 1 .407-.423c2.94-1.632 5.264-4.387 5.634-5.345.226-.587.226-1.32 0-1.78-.128-.26-.312-.42-.58-.5l-3.755-.935-.205-.026c-1.16-.164-1.774-.047-2.13 1.043-.164.503-.133.92.095 1.28.266.418.8.732 1.362.8a1 1 0 1 1-.241 1.986c-1.15-.14-2.225-.796-2.808-1.712-.386-.606-.753-1.615-.308-2.974.94-2.87 3.473-2.52 4.306-2.404l.16.022c.833.096 2.658.574 4.097 1.005.806.24 1.43.772 1.804 1.535.474.967.5 2.263.07 3.38-.537 1.39-3.052 4.356-6.258 6.22l-.87 1.72a1 1 0 0 1-.893.549" class="B"/><path d="M488.58 170.932l2.028.332a3.69 3.69 0 0 0 4.057-3.278 3.69 3.69 0 0 0-3.279-4.058l-3.243-.362-2.277 6.953c.162.06 2.714.413 2.714.413" class="C"/><path d="M486.135 170.77l2.09.342a3.8 3.8 0 1 0 .802-7.559l-3.342-.373-2.346 7.163c.168.063 2.797.427 2.797.427" class="H"/><g class="B"><path d="M491.002 172.284c-.165 0-.33-.01-.498-.026l-2.084-.34a1 1 0 1 1 .323-1.975l2.028.332c1.417.15 2.745-.923 2.9-2.396.076-.715-.13-1.416-.582-1.975s-1.094-.907-1.808-.983a1 1 0 0 1-.889-1.1c.06-.55.55-.944 1.1-.89a4.66 4.66 0 0 1 3.152 1.715c.787.975 1.148 2.198 1.016 3.443-.255 2.403-2.294 4.193-4.66 4.193"/><path d="M491.39 164.928c-.064 0-.13-.006-.195-.02-3.114-.615-3.257-4.23-3.423-8.416-.212-5.34-.475-11.99-6.142-16.187a1 1 0 0 1 1.191-1.607c6.436 4.77 6.733 12.25 6.95 17.715.153 3.86.323 6.24 1.813 6.533a1 1 0 0 1-.193 1.981"/><path d="M480.794 141.27a1 1 0 0 1-.927-1.373c1.248-3.103 3.685-6.07 6.684-8.146a1 1 0 1 1 1.138 1.645c-2.686 1.857-4.86 4.5-5.967 7.247a1 1 0 0 1-.928.627m-49.25 72.188a1 1 0 0 1-1-1v-4.488a1 1 0 1 1 2 0v4.488a1 1 0 0 1-1 1m56.633 19.045h-3.685a1 1 0 1 1 0-2h3.685a1 1 0 1 1 0 2"/></g><use xlink:href="#P" class="C"/><g class="D"><use xlink:href="#P"/><path d="M488.86 162.36s-2.078-13.642-12.255-17.773c0 0 .072-3.534 3.627-6.286 0 0 11.252 7.247 8.628 24.06"/></g><path d="M483.126 136.318c-1.03.636-1.806 1.354-2.403 2.063l.73-.496s7.892 6.354 7.06 18.836c.58 2.586.667 4.428.667 4.428 4.373-16.444-6.056-24.83-6.056-24.83" class="C"/><path d="M480.003 141.685c5.465 3.26 8.005 9.066 9.18 13.487.68-9.998-4.455-15.92-6.152-17.587-1.983 1.447-2.747 3.184-3.028 4.1m9.18 20.465a.96.96 0 0 1-.107-.006 1 1 0 0 1-.893-.947c-.006-.133-.733-13.283-9.794-18.127a1 1 0 0 1-.521-1.007c.02-.162.55-4 4.732-6.596.36-.22.822-.194 1.153.072.113.1 2.803 2.284 4.937 6.583 1.956 3.943 3.797 10.5 1.458 19.285a1 1 0 0 1-.965.743" class="B"/><path d="M470.614 146.674c-2.202 2.987-7.767 10.95-18.6 8.466-9.303-2.134-13.87-8.543-14.027-17.115s7.585-18.114 18.264-17.44 16.02 8.854 16.622 16.35c3.938-3.32 8.758.613 7.92 3.337 0 0 .03 1.464-1.3 2.792 0 0-4.088 3.958-8.88 3.612" class="C"/><path d="M468.232 146.674c-2.202 2.987-7.767 10.95-18.6 8.466-9.303-2.134-13.87-8.543-14.027-17.115s7.585-18.114 18.264-17.44 16.02 8.854 16.622 16.35c3.938-3.32 7.545.533 7.92 3.337.448 3.34-1.65 7.237-10.18 6.404" class="E"/><path d="M456.075 151.956c-9.302-2.135-13.87-8.543-14.027-17.116-.092-5.026 2.534-10.38 6.872-13.82-8.035 1.97-13.446 9.825-13.315 17.004.157 8.573 4.725 14.982 14.027 17.116 6.164 1.414 10.62-.556 13.724-3.066-2.107.467-4.522.515-7.28-.118" class="G"/><g class="B"><path d="M456.065 156.617c-1.337 0-2.76-.155-4.275-.503-9.37-2.15-14.63-8.567-14.803-18.07-.087-4.805 2.12-9.835 5.9-13.458 3.697-3.536 8.462-5.3 13.417-5 10.474.66 16.12 8.08 17.358 15.64 2.154-1.032 4.326-.52 5.8.457 1.795 1.187 2.73 3.115 2.318 4.737-.028.513-.23 2-1.588 3.348a1 1 0 0 1-1.414-1.414c.986-.986 1.005-2.034 1.006-2.078 0-.096.015-.208.044-.3.24-.783-.4-1.9-1.47-2.624-.584-.386-2.66-1.504-4.852.346a1 1 0 0 1-1.642-.684c-.58-7.226-5.656-14.8-15.687-15.43-4.393-.272-8.62 1.304-11.9 4.448-3.392 3.243-5.37 7.72-5.292 11.976.156 8.496 4.86 14.234 13.25 16.16 9.586 2.2 15.094-4.08 17.525-8.017a1 1 0 1 1 1.702 1.051c-1.888 3.06-6.848 9.418-15.4 9.418M493.2 269.622c-.138 0-.277-.028-.4-.1-5.155-2.328-32.617-5.94-55.152-4.575-.55.026-1.026-.387-1.06-.938a1 1 0 0 1 .938-1.058c22.815-1.383 50.8 2.352 56.096 4.75a1 1 0 0 1-.412 1.911"/><path d="M484.337 224.044c-1.338-3.508 2.75-5.948 4.41-6.577s-5.58-.486-5.58-.486l-3.198-.347s-.416 2.64 1.252 6.528 4.046 3.318 3.116.882"/></g><path d="M321.71 242.46h84.604v4.01a3 3 0 0 1-3 3H324.71a3 3 0 0 1-3-3v-4.01z" class="F"/><path d="M322.71 243.46v3.01c0 1.102.897 2 2 2h78.604c1.103 0 2-.898 2-2v-3.01H322.71zm80.604 7.01H324.71c-2.206 0-4-1.794-4-4v-4.01a1 1 0 0 1 1-1h84.604a1 1 0 0 1 1 1v4.01c0 2.206-1.794 4-4 4h0z" class="B"/><path d="M397.188 242.46h46.973v4.01a3 3 0 0 1-3 3h-40.973a3 3 0 0 1-3-3v-4.01z" class="C"/><path d="M398.188 243.46v3.01c0 1.102.897 2 2 2h40.973c1.102 0 2-.898 2-2v-3.01h-44.973zm42.973 7.01h-40.973c-2.206 0-4-1.794-4-4v-4.01a1 1 0 0 1 1-1h46.973a1 1 0 0 1 1 1v4.01c0 2.206-1.795 4-4 4h0z" class="B"/><path d="M308.68 181.107h62.352c2.23 0 4.223 1.394 4.99 3.488l21.17 57.866h-73.666L303.7 188.246c-1.268-3.467 1.298-7.14 4.99-7.14" class="F"/><path d="M324.222 241.46h71.536l-21.713-59.354H308.68c-1.428 0-2.716.67-3.534 1.842s-1.007 2.612-.516 3.953l19.593 53.56zm72.967 2h-73.666a1 1 0 0 1-.939-.656L302.75 188.6c-.708-1.935-.426-4.098.754-5.786a6.32 6.32 0 0 1 5.174-2.697h66.065a1 1 0 0 1 .94.657l22.444 61.353a1 1 0 0 1-.939 1.344h0z" class="B"/><path d="M300.768 181.107a3.99 3.99 0 0 0-3.742 5.354l19.53 53.384c.575 1.57 2.07 2.616 3.742 2.616h76.89l-22.456-61.354h-73.964z" class="C"/><path d="M300.768 182.107a2.95 2.95 0 0 0-2.803 4.01l19.53 53.385c.43 1.17 1.555 1.96 2.803 1.96h75.46l-21.724-59.354h-73.265zm96.42 61.354h-76.89a5 5 0 0 1-4.681-3.272l-19.53-53.385c-.56-1.527-.336-3.235.596-4.568s2.46-2.13 4.085-2.13h73.964a1 1 0 0 1 .939.656l22.456 61.354c.112.306.068.648-.12.917s-.494.427-.82.427h0z" class="B"/><path d="M374.732 181.107h0l22.456 61.354h-3.075a4.2 4.2 0 0 1-3.944-2.757l-19.38-52.952c-1.004-2.742 1.025-5.645 3.944-5.645" class="C"/><path d="M374.06 182.177c-.785.165-1.474.617-1.95 1.298a3.16 3.16 0 0 0-.383 2.933l19.382 52.953a3.21 3.21 0 0 0 3.005 2.1h1.644l-21.7-59.284zm23.13 61.284h-3.075a5.22 5.22 0 0 1-4.883-3.413l-19.382-52.952c-.583-1.594-.35-3.376.62-4.767s2.566-2.22 4.263-2.22a1 1 0 0 1 .939.656l22.456 61.353a1 1 0 0 1-.939 1.344h0z" class="B"/><path d="M336.87 202.866c4.925 0 10.276 3.992 11.952 8.918s-.96 8.92-5.885 8.92-10.277-3.993-11.952-8.92.96-8.918 5.885-8.918h0zm.516 1.518c-4.087 0-6.273 3.313-4.883 7.4s5.83 7.4 9.918 7.4 6.273-3.313 4.883-7.4-5.83-7.4-9.918-7.4h0zm5.823 9.108c.237 0 .5.158.614.37l.05.11.188.554c.078.23-.022.42-.226.47l-.11.014h-6.588a.76.76 0 0 1-.614-.373l-.05-.1-.188-.554c-.078-.228.022-.42.226-.47l.11-.013h6.588zm-5.974-2.656h6.588a.76.76 0 0 1 .615.371l.05.1.19.555c.078.227-.022.42-.227.47l-.1.012h-6.588c-.238 0-.5-.158-.614-.37l-.05-.1-.19-.555c-.077-.227.023-.42.227-.47l.1-.012zm4.167-2.658c.276 0 .574.216.665.483l.188.554c.09.266-.06.482-.337.482h-6.588c-.277 0-.574-.216-.665-.482l-.188-.554c-.09-.267.06-.483.337-.483h6.588z" class="F"/><path d="M226.315 275.407h-.01a1 1 0 0 1-.989-1.011l.24-22.582a1 1 0 0 1 .189-.575l42.023-58.15-38.755-68.465a1 1 0 0 1 .378-1.363 1 1 0 0 1 1.362.378l39.07 69.023a1 1 0 0 1-.06 1.078l-42.212 58.413-.236 22.265a1 1 0 0 1-1 .989" class="B"/><use xlink:href="#Q" class="C"/><use xlink:href="#Q" x="-4" class="D"/><g class="E"><path d="M222.708 274.3l.24-22.58c.022-2.058.68-4.056 1.885-5.723l38.66-53.496-35.926-63.467c-2.655-4.69-1.08-10.614 3.495-13.393-2.982-1.815-6.83-2.008-10.08-.167a9.95 9.95 0 0 0-3.758 13.56l35.926 63.467-38.66 53.496a9.94 9.94 0 0 0-1.885 5.723l-.24 22.58c-.057 5.396 4.19 9.835 9.547 10.05l.298.01c1.933.02 3.737-.522 5.274-1.46-2.893-1.767-4.814-4.962-4.775-8.598"/><path d="M268.12 171.486c-3.467-2.696-8.04-1.553-11.423.422s-6.64 6.536-5.918 9.343-5.575-9.85-5.575-9.85l17.48-8.642 5.435 8.727z"/></g><path d="M229.687 115.223c-1.164 0-2.328.233-3.427.724a8.88 8.88 0 0 0-4.88 5.387 8.97 8.97 0 0 0 .712 7.208l35.926 63.466a1 1 0 0 1-.06 1.078l-38.66 53.497c-1.1 1.507-1.676 3.286-1.696 5.148l-.24 22.58c-.05 4.874 3.72 8.845 8.588 9.04h.001l.122.003c2.422.056 4.713-.828 6.454-2.506a8.88 8.88 0 0 0 2.736-6.346l.135-12.675a22.13 22.13 0 0 1 4.213-12.792l36.595-50.636a8.98 8.98 0 0 0 .535-9.653l-38.86-68.65c-1.74-3.074-4.962-4.874-8.195-4.874m-3.368 170.135c-.097 0-.194-.002-.292-.004l-.156-.005c-5.955-.237-10.57-5.095-10.508-11.06l.24-22.58a10.9 10.9 0 0 1 2.075-6.298l38.283-52.976-35.6-62.908c-1.516-2.68-1.834-5.893-.87-8.818.976-2.966 3.094-5.306 5.965-6.59 5.08-2.268 11.31-.076 14.178 4.993l38.86 68.65a10.98 10.98 0 0 1-.654 11.809l-36.595 50.636a20.13 20.13 0 0 0-3.834 11.642l-.135 12.675a10.86 10.86 0 0 1-3.348 7.764 10.87 10.87 0 0 1-7.597 3.07" class="B"/><g class="C"><use xlink:href="#R"/><use xlink:href="#S"/></g><g class="B"><use xlink:href="#R" x="-3"/><use xlink:href="#S" x="-3"/><path d="M188.52 437l-.392 13.943a1.99 1.99 0 0 0 .565 1.452c.38.4.9.605 1.434.605h53.915v-2.112c0-3.422-2.43-6.46-5.907-7.385L213.716 437H188.52zm56.522 18h-54.915a3.97 3.97 0 0 1-2.867-1.212c-.76-.78-1.162-1.8-1.13-2.9l.42-14.915a1 1 0 0 1 1-.972h26.3a1.06 1.06 0 0 1 .257.033l24.545 6.536c4.353 1.16 7.393 4.992 7.393 9.32v3.1a1 1 0 0 1-1 1h0zm-132.002-1.963h53.914c.545 0 1.055-.215 1.434-.605a1.99 1.99 0 0 0 .566-1.451l-.392-13.944h-25.196l-24.42 6.504c-3.478.926-5.907 3.962-5.907 7.384v2.112zm53.914 2H112.04a1 1 0 0 1-1-1v-3.112c0-4.326 3.04-8.16 7.392-9.318l24.546-6.537a1.06 1.06 0 0 1 .257-.033h26.3a1 1 0 0 1 1 .972l.42 14.916c.03 1.1-.37 2.12-1.13 2.9a3.97 3.97 0 0 1-2.868 1.212h0z"/></g><use xlink:href="#T" class="C"/><use xlink:href="#T" x="-3" class="K"/><path d="M209.967 251.217h-.168c-5.86.07-19.52 7.07-25.664 13.8-3.813-4.88-9.525-9.174-13.758-10.234-7.465-1.873-21.336-3.747-26.283 15.7l-6.732 27.5c12.774-16.183 36.308-17.945 46.68-17.945 12 0 38 3 38.454 8.474l1.4-23.528c-.1-7.638-6.3-13.766-13.927-13.766M194.887 431.9l-6.15-126.276c-.246-5.038-4.403-8.997-9.447-8.995l6.598 135.452c.76 3.297 10.26 4.056 17.343 3.212-4.315-.358-7.9-1.422-8.343-3.393" class="L"/><path d="M189.88 431.936c.447 1.398 4.625 2.798 11.643 2.68 7.112-.12 11.28-1.668 11.43-2.43l9.942-167.262c-.085-6.973-5.884-12.706-12.928-12.706h-.168c-7.333.1-27.84 12-27.758 18.81l7.84 160.9zm11.006 4.68c-4.07 0-12.096-.49-12.974-4.302-.013-.058-.022-.117-.024-.176l-7.846-161.053c-.103-8.667 21.926-20.773 29.744-20.87h.18c8.134 0 14.83 6.618 14.926 14.754l-9.952 167.415c-.485 3.438-9.4 4.076-12.108 4.192a46.77 46.77 0 0 1-1.947.039h0z" class="B"/><use xlink:href="#U" class="C"/><use xlink:href="#U" x="-3" class="K"/><g class="L"><path d="M153.822 437.12l-12.26-80.938c-.68-2.36-.726-4.862-.13-7.245l10.662-78.443c2.645-10.403 7.842-14.705 13.246-16.173-7.726-1.572-19.72-1.63-24.246 16.173l-10.662 78.443c-.597 2.383-.552 4.884.13 7.245l12.26 80.938c4.047 1.52 9.177 1.608 13.428.706-.838-.19-1.656-.416-2.428-.706"/><path d="M147.955 261.308c-.968 1.46-1.846 3.18-2.607 5.196l-.403 1.125-.85 2.865-6.732 27.488c12.773-16.183 36.307-17.945 46.68-17.945a85.17 85.17 0 0 1 2.297.034l1.703-4.034c.81-3.23-.996-7.294-3.906-11.02-.707-.904-1.48-1.788-2.295-2.635-.034-.036-.07-.072-.105-.107-.23-.237-.46-.47-.696-.7l-.173-.167-.656-.618-.203-.184-.656-.578-.205-.178-.697-.576-.17-.137a32.15 32.15 0 0 0-.834-.644c-.012-.01-.025-.02-.038-.03-.3-.224-.602-.44-.903-.65l-.053-.035a26.41 26.41 0 0 0-.809-.539l-.255-.16-.603-.37-.313-.18a24.61 24.61 0 0 0-.538-.3l-.334-.175c-.172-.09-.342-.174-.512-.255l-.33-.156-.504-.22-.318-.13a13.1 13.1 0 0 0-.527-.193l-.266-.095c-.25-.08-.498-.154-.74-.215-.01-.002-.018-.005-.026-.007-2.333-.585-5.29-1.17-8.407-1.106a20.47 20.47 0 0 0-2.835.252c-.634.104-1.268.24-1.9.416-.316.088-.63.186-.945.294-.627.216-1.25.474-1.863.778a15.9 15.9 0 0 0-.914.493 15.73 15.73 0 0 0-1.27.84c-1.544 1.12-2.996 2.608-4.29 4.556"/></g><path d="M146.72 436.378c6.98 2.345 16.44.474 19.06-2.785l-4.752-79.84c-.008-.128.01-.256.05-.377l26.015-77.656c.728-2.92-1.18-7.335-5.13-11.74-3.638-4.06-8.392-7.367-11.83-8.227-4.94-1.24-19.958-5.007-25.057 14.93l-10.654 78.387c-.005.036-.012.073-.02.11-.553 2.21-.512 4.535.12 6.724.012.042.02.085.028.128l12.17 80.346zm6.998 3.046c-2.87 0-5.758-.434-8.25-1.368-.34-.128-.582-.43-.637-.787l-12.25-80.874a14.94 14.94 0 0 1-.133-7.647l10.654-78.39a.84.84 0 0 1 .022-.111c3.7-14.553 12.95-20.08 27.495-16.43 3.85.963 8.89 4.43 12.833 8.83 4.456 4.972 6.482 9.942 5.558 13.634l-25.976 77.547 4.762 80.008a1 1 0 0 1-.17.62c-2.11 3.113-7.972 4.97-13.91 4.97h0z" class="B"/><path d="M192.987 295.823s-13.333 1.88-26.333-.953-6.834-36-6.834-36l44.04-6.32-10.873 43.273z" class="K"/><path d="M179.36 297.636c-1.592 0-2.828-.234-3.767-.704a1 1 0 0 1 .894-1.789c2.08 1.042 6.585.176 8.065-.1a1 1 0 1 1 .377 1.965c-2.213.425-4.053.638-5.57.638m39.25-6.234a1 1 0 0 1-.64-.231c-.225-.2-5.54-4.703-7.34-13.57a1 1 0 0 1 .781-1.179c.542-.105 1.07.24 1.178.78 1.66 8.186 6.6 12.4 6.66 12.43.424.354.48.985.128 1.4a1 1 0 0 1-.769.359m-74.838-2.264a1 1 0 0 1-.268-1.963c5.283-1.475 7.254-8.216 7.274-8.283a1 1 0 0 1 1.925.542c-.1.32-2.286 7.887-8.662 9.667a1 1 0 0 1-.269.037" class="B"/><path d="M196.773 280.754l7.08-28.174c-6.565 2.368-15.184 7.47-19.716 12.438-2.59-3.313-6.053-6.353-9.335-8.297l-14.98 2.15s-2.648 14.248-.814 24.864c9.674-3.16 19.34-3.697 25.036-3.697 3.414 0 7.96.244 12.73.717" class="L"/><g class="C"><path d="M227.098 265.52c-.088-6.185 9.138-55.784 8.208-87.402l-1.225-51.908c-1.8-16.386-14.28-22.853-31.83-21.302-18.518 1.635-33.054 11.877-33.525 26.507s.436 25.89-.978 60.494c-.96 23.5-16.775 44.203-21.704 63.15-1.824 7.008 27.517 19.318 41.935 20.15s39.243-1.035 39.12-9.69"/><path d="M171.605 172.124s-14.66-4.562-21.965-13.407c0 0 8.197-29.772 11.946-36.642s20.288-10.922 20.288-10.922 6.148 13.05-.34 33.958-9.93 27.013-9.93 27.013m93.792-19.93l-21.532-34.045c-6.006-8.503-19.217-14.602-39.05-11.738s31.595 61.15 39.05 69.563c5.907.001 17.02-6.45 21.532-23.78"/></g><path d="M146.19 218.137a9.98 9.98 0 0 1-2.982-.457c-5.272-1.646-8.212-7.253-6.567-12.525l23.944-76.72a10 10 0 0 1 12.525-6.567c5.272 1.646 8.212 7.253 6.567 12.526l-23.944 76.72c-1.336 4.28-5.284 7.023-9.543 7.023" class="D"/><g class="E"><path d="M159.225 132.794l-11.838 37.933c6.35.016 16.272 8.07 15.666 10.932l1.986-.363 12.49-40.023-18.305-8.48z"/><path d="M141.08 207.505l23.944-76.72c1.294-4.146 5.04-6.84 9.147-7.005a9.94 9.94 0 0 0-4.366-2.771 10 10 0 0 0-12.525 6.566l-23.944 76.72a10 10 0 0 0 6.567 12.525 9.98 9.98 0 0 0 2.982.457c.133 0 .265-.01.398-.015-2.34-2.54-3.307-6.222-2.203-9.757"/></g><path d="M170.12 122.407c-1.435 0-2.86.348-4.166 1.034a8.94 8.94 0 0 0-4.412 5.29l-23.944 76.72a8.94 8.94 0 0 0 5.91 11.272 8.97 8.97 0 0 0 2.684.412 8.96 8.96 0 0 0 8.589-6.321l23.943-76.72a8.94 8.94 0 0 0-.62-6.861c-1.116-2.13-2.995-3.696-5.3-4.413-.885-.276-1.792-.414-2.694-.414m-23.928 96.73a10.98 10.98 0 0 1-3.28-.502 10.92 10.92 0 0 1-6.465-5.393c-1.364-2.602-1.634-5.58-.758-8.385l23.944-76.72c.875-2.805 2.8-5.102 5.392-6.466a10.91 10.91 0 0 1 8.386-.757c2.804.875 5.1 2.8 6.464 5.392s1.634 5.58.76 8.385l-23.944 76.72a10.95 10.95 0 0 1-10.498 7.725" class="B"/><path d="M142.027 219.198c-3.642-.17-6.985-2.514-8.253-6.17l-20.18-58.18a9.19 9.19 0 0 1 5.671-11.692c4.794-1.66 10.03.877 11.692 5.67l24.083 54.21c1.663 4.794 0 14-9.575 15.662-1.188.206-2.304.553-3.44.5" class="D"/><path d="M148.815 190.478l-16.688-41.686c-1.128-2.818-3.523-4.744-6.266-5.402 2.307.98 4.21 2.884 5.097 5.44l12.23 35.26c.786 2.266 2.3 4.207 4.306 5.522l1.32.866z" class="C"/><path d="M141.774 210.978l-20.178-58.18c-1.06-3.05-.4-6.276 1.433-8.65-2.04-.885-4.398-1.047-6.663-.263-4.795 1.664-7.333 6.9-5.67 11.693l20.18 58.18c1.268 3.656 4.61 5.998 8.253 6.17 1.135.053 2.3-.105 3.44-.5 1.748-.606 3.192-1.69 4.246-3.053-2.278-.987-4.16-2.866-5.038-5.397" class="E"/><path d="M146.167 219.158c-4.855 0-8.765-3.392-10.06-6.627l-21.626-56.693c-2.043-5.104.455-10.936 5.574-12.986a10.02 10.02 0 0 1 13 5.568l17.506 41.227c.215.508-.022 1.096-.53 1.312a1 1 0 0 1-1.311-.53l-17.514-41.247c-1.647-4.112-6.312-6.11-10.408-4.472a8.01 8.01 0 0 0-4.454 10.399l21.626 56.694c1.093 2.73 5.562 6.945 11.382 4.755 2.34-.88 4.3-2.69 4.993-4.6l4.955-15.616a1 1 0 0 1 1.255-.651 1 1 0 0 1 .651 1.256l-4.967 15.654c-.9 2.52-3.274 4.743-6.18 5.838-1.34.506-2.647.73-3.89.73" class="B"/><path d="M122.22 145.843a3.38 3.38 0 0 1-.601.116 3.5 3.5 0 0 1-3.85-3.11c-.332-3.124-1.703-19.01 3.903-24.927 1.33-1.4 3.545-1.462 4.948-.133s1.463 3.545.134 4.95c-2.504 2.64-2.688 13.12-2.024 19.372.182 1.714-.907 3.272-2.5 3.733" class="D"/><path d="M124.213 117.832a2.5 2.5 0 0 0-1.817.778c-4.11 4.34-4.527 15.713-3.634 24.133.146 1.37 1.38 2.348 2.75 2.222a2.46 2.46 0 0 0 .43-.083h0c1.167-.336 1.92-1.457 1.792-2.667-.44-4.14-.962-16.73 2.293-20.165.948-1 .905-2.586-.096-3.535-.482-.456-1.1-.683-1.718-.683m-2.97 29.146a4.51 4.51 0 0 1-4.471-4.024c-.477-4.497-1.585-19.642 4.172-25.72a4.51 4.51 0 0 1 6.362-.171c1.8 1.707 1.878 4.56.17 6.362-1.976 2.085-2.51 11.465-1.755 18.58.23 2.177-1.126 4.195-3.228 4.8a4.45 4.45 0 0 1-.774.15 4.52 4.52 0 0 1-.477.024" class="B"/><path d="M104.978 134.913c-1.04 0-2.068-.46-2.76-1.343l-3.45-4.4a3.5 3.5 0 0 1-.38-3.712l2.055-4.144c.3-.585.738-1.078 1.293-1.42l3.545-2.197a3.5 3.5 0 1 1 3.687 5.952l-2.697 1.67-.632 1.274 2.093 2.674a3.5 3.5 0 0 1-.599 4.913c-.64.5-1.4.744-2.155.744" class="D"/><path d="M102.04 129.16a3.5 3.5 0 0 1-.379-3.712l2.055-4.144a3.5 3.5 0 0 1 1.292-1.421l1.014-.628c-.065-.147-.125-.295-.212-.436-1.018-1.643-3.175-2.15-4.82-1.133l-3.545 2.197c-.555.343-1.003.836-1.293 1.42l-2.055 4.144a3.5 3.5 0 0 0 .379 3.712l3.452 4.4c.7.882 1.72 1.343 2.76 1.343.754 0 1.514-.243 2.154-.744.754-.6 1.198-1.428 1.312-2.308l-2.114-2.7z" class="E"/><path d="M107.12 118.163c-.45 0-.903.12-1.313.374l-3.545 2.196c-.396.245-.715.597-.923 1.015l-2.055 4.144c-.425.858-.32 1.898.27 2.652l3.452 4.4a2.56 2.56 0 0 0 3.509.428c1.086-.85 1.278-2.424.428-3.5l-2.092-2.674a1 1 0 0 1-.109-1.06l.632-1.275c.083-.167.21-.307.37-.406l2.696-1.67c1.172-.726 1.535-2.27.81-3.44a2.5 2.5 0 0 0-2.13-1.183m-2.142 17.75c-1.395 0-2.687-.63-3.546-1.727l-3.452-4.4c-1.06-1.356-1.253-3.23-.488-4.772l2.055-4.145c.374-.753.948-1.384 1.662-1.826l3.546-2.197a4.51 4.51 0 0 1 6.195 1.457c1.306 2.108.654 4.888-1.455 6.194l-2.455 1.52-.225.454 1.704 2.178c1.53 1.954 1.184 4.787-.77 6.316-.8.626-1.758.957-2.77.957" class="B"/><path d="M131.48 138.412c.187 1.875.78 10.793 1.03 12.418s-15.798 6.537-16.968 3.644l-2.437-5.812 18.375-10.25z" class="D"/><path d="M131.857 136.462L118.1 102.958c-.6-1.438-2.282-2.46-4.133-2.496l-9.614-.187c-1.212-.023-2.243.372-2.94 1l-.001-.001-3.875 2.835 4.08 3.247.228-.165 12.595 30.674c.59 1.44 2.283 2.46 4.133 2.496l8.463.164.538 1.54 3.012-2.122a3.45 3.45 0 0 0 .442-.31l.02-.015v-.001c.918-.78 1.3-1.954.806-3.155" class="C"/><path d="M101.847 106.2c.092 0 .184.013.274.038a1 1 0 0 1 .651.582l12.595 30.675c.435 1.06 1.792 1.85 3.227 1.876l8.463.164a1 1 0 0 1 .925.67l.1.29 1.93-1.358a3.19 3.19 0 0 0 .375-.261l.042-.032c.617-.54.8-1.264.502-1.992l-13.757-33.504c-.435-1.06-1.792-1.848-3.227-1.876l-9.615-.186c-.9-.034-1.7.246-2.25.742a1.04 1.04 0 0 1-.08.066l-2.818 2.06 2.58 2.05.082-.003m25.73 36.874c-.103 0-.206-.016-.306-.048a1 1 0 0 1-.638-.622l-.31-.883-7.767-.15c-2.266-.043-4.29-1.296-5.04-3.116l-12.31-29.978a1.04 1.04 0 0 1-.212-.13l-4.08-3.246a1 1 0 0 1 .032-1.589l3.837-2.807c.926-.815 2.203-1.253 3.588-1.22l9.615.186c2.266.043 4.29 1.296 5.038 3.117l13.757 33.504c.634 1.545.22 3.192-1.085 4.297-.2.166-.39.298-.593.42l-2.953 2.082a.99.99 0 0 1-.575.183" class="B"/><path d="M114.94 142.958l9.615.187c2.71.05 4.532-1.977 3.667-4.085l-13.757-33.505c-.59-1.44-2.283-2.46-4.133-2.496l-9.614-.187c-2.712-.052-4.533 1.978-3.668 4.086l13.757 33.504c.59 1.438 2.283 2.46 4.133 2.496" class="F"/><path d="M100.62 103.87c-1.073 0-2.024.42-2.493 1.105a1.62 1.62 0 0 0-.151 1.602l13.757 33.504c.435 1.06 1.792 1.85 3.226 1.876h.001l9.614.186c1.1.067 2.092-.4 2.572-1.104a1.62 1.62 0 0 0 .151-1.601l-13.756-33.505c-.436-1.06-1.793-1.848-3.227-1.876l-9.694-.187m24.036 40.274c-.04 0-.08 0-.12-.001l-9.615-.186c-2.266-.043-4.29-1.296-5.04-3.116l-13.756-33.504c-.486-1.184-.358-2.455.35-3.49.87-1.27 2.46-2 4.26-1.975l9.615.187c2.266.042 4.29 1.295 5.04 3.116l13.756 33.505c.486 1.182.358 2.455-.35 3.5-.85 1.242-2.392 1.975-4.14 1.975" class="B"/><path d="M98.388 125.448l2.055-4.145a3.5 3.5 0 0 1 1.293-1.42l3.545-2.197a3.5 3.5 0 0 1 3.687 5.951l-2.697 1.67-.632 1.275-2.015 1.228-5.236-2.362z" class="D"/><path d="M105.8 118.82c-.23-.373-.526-.68-.855-.93l-3.22 1.994a3.5 3.5 0 0 0-1.293 1.421l-2.055 4.145 2.922 1.318c.03-.45.143-.898.35-1.318l2.055-4.145c.3-.585.738-1.077 1.292-1.42l1.015-.627c-.065-.147-.126-.295-.213-.436" class="E"/><path d="M105.12 128.63a.99.99 0 0 1-.443-.104 1 1 0 0 1-.452-1.34l1.15-2.322a1.01 1.01 0 0 1 .369-.406l2.697-1.67c1.17-.725 1.534-2.27.81-3.44a2.51 2.51 0 0 0-3.443-.809l-3.545 2.196c-.396.246-.716.597-.923 1.015l-2.055 4.145a1 1 0 1 1-1.792-.889l2.055-4.145a4.5 4.5 0 0 1 1.662-1.826l3.545-2.197a4.51 4.51 0 0 1 6.196 1.457c1.306 2.108.653 4.888-1.456 6.194l-2.454 1.52-1.024 2.065a1 1 0 0 1-.897.556" class="B"/><path d="M106.623 148.487s6.63 1.892 8.75 6.964c1.162 2.782 15.534-1.714 14.44-5.652l-2.384-8.16-20.805 6.85z" class="D"/><path d="M113.673 147.22l-.16-.058-10.552 1.97 1.363.496s5.488 2.654 7.607 7.726c.73 1.746 6.665.624 10.71-1.428-2.808-5.715-8.97-8.706-8.97-8.706" class="E"/><path d="M129.315 140.002c-.44-1.46-1.75-2.403-3.19-2.47 1.246-.753 1.946-2.226 1.62-3.728-.332-1.522-1.612-2.578-3.082-2.723a3.48 3.48 0 0 0 1.041-2.827 3.5 3.5 0 0 0-3.826-3.142l-9.583.942a3.54 3.54 0 0 0-1.051.272l-12.094 5.25a3.5 3.5 0 0 0-1.817 4.605 3.49 3.49 0 0 0 2.672 2.062c-.696.9-.943 2.12-.547 3.276a3.5 3.5 0 0 0 3.311 2.367 3.53 3.53 0 0 0 1.069-.173c-.18.507-.257 1.056-.18 1.624a3.5 3.5 0 0 0 3.464 3.031 3.61 3.61 0 0 0 .473-.031l11.04-1.492a3.63 3.63 0 0 0 .545-.119l7.8-2.36a3.5 3.5 0 0 0 2.336-4.363" class="C"/><path d="M126.248 140.945a3.49 3.49 0 0 0-3.191-2.469 3.49 3.49 0 0 0 1.619-3.729c-.332-1.522-1.612-2.578-3.082-2.723a3.48 3.48 0 0 0 1.041-2.827 3.5 3.5 0 0 0-3.826-3.142l-9.583.942a3.54 3.54 0 0 0-1.051.272l-12.094 5.25a3.5 3.5 0 0 0-1.817 4.605c.495 1.142 1.527 1.884 2.672 2.063-.696.9-.943 2.118-.547 3.275a3.5 3.5 0 0 0 3.311 2.367 3.53 3.53 0 0 0 1.069-.173c-.18.507-.257 1.056-.18 1.624a3.5 3.5 0 0 0 3.464 3.031 3.61 3.61 0 0 0 .473-.031l11.04-1.492a3.63 3.63 0 0 0 .545-.119l7.8-2.36a3.5 3.5 0 0 0 2.336-4.363" class="D"/><path d="M122.826 144.908c-.178.055-.36.094-.545.12l-11.04 1.492a3.45 3.45 0 0 1-.473.032 3.5 3.5 0 0 1-3.464-3.032c-.077-.57.001-1.118.18-1.625-.355.115-.714.174-1.07.174a3.5 3.5 0 0 1-3.311-2.367c-.396-1.156-.15-2.375.547-3.275-1.145-.18-2.177-.92-2.672-2.063a3.5 3.5 0 0 1 1.817-4.604l6.31-2.74c-.32.043-.635.123-.932.25l-12.094 5.25a3.5 3.5 0 0 0-1.817 4.605c.496 1.142 1.527 1.884 2.672 2.063-.696.9-.943 2.118-.547 3.275a3.5 3.5 0 0 0 3.311 2.367c.355 0 .714-.06 1.07-.173-.178.507-.257 1.056-.18 1.624a3.5 3.5 0 0 0 3.464 3.031c.156 0 .314-.01.473-.03l11.04-1.492a3.6 3.6 0 0 0 .545-.119l7.8-2.36a3.46 3.46 0 0 0 1.788-1.27l-2.874.87z" class="E"/><g class="B"><path d="M107.12 149.368c-2.24 0-4.155-1.676-4.455-3.897a1.84 1.84 0 0 0-.229-.597c-1.786-.132-3.338-1.317-3.926-3.03a4.51 4.51 0 0 1-.063-2.71c-.13-.232-.443-.62-.67-.795a4.51 4.51 0 0 1 .972-7.679l12.095-5.25c.43-.187.884-.304 1.35-.35l9.585-.94c1.184-.117 2.35.23 3.282.99.937.765 1.518 1.85 1.636 3.05.08.817-.067 1.628-.415 2.354 1.223.586 2.138 1.704 2.438 3.08.265 1.217.005 2.46-.664 3.452 1.047.548 1.862 1.496 2.216 2.67.72 2.376-.63 4.892-3.004 5.6l-7.8 2.36a4.31 4.31 0 0 1-.699.153l-4.455.602a1 1 0 0 1-.267-1.982l4.452-.602c.13-.017.26-.045.386-.084l7.804-2.36c1.32-.4 2.068-1.797 1.67-3.117a2.5 2.5 0 0 0-2.28-1.76 1 1 0 0 1-.471-1.854c.92-.556 1.385-1.624 1.16-2.66-.23-1.053-1.115-1.833-2.203-1.94a1 1 0 0 1-.603-1.708c.547-.54.82-1.273.747-2.017a2.49 2.49 0 0 0-.911-1.696c-.516-.42-1.16-.626-1.817-.548l-9.588.942c-.26.026-.513.09-.752.195l-12.093 5.25c-1.264.55-1.847 2.025-1.298 3.29.17.4.423.718.756.976.02.014 1.858 1.543 1.4 2.792a2.46 2.46 0 0 0-.012 1.644 2.5 2.5 0 0 0 2.365 1.692c1.172 0 1.782 1.6 1.88 2.317a2.51 2.51 0 0 0 2.812 2.143c.548-.077 1.05.3 1.125.857a1 1 0 0 1-.857 1.125 4.63 4.63 0 0 1-.607.04"/><path d="M116.3 158.773a1 1 0 0 1-.942-.665c-2.25-6.337-4.42-7.6-8.508-8.78a1 1 0 1 1 .56-1.92c4.837 1.408 7.405 3.2 9.833 10.03a1 1 0 0 1-.607 1.277 1.01 1.01 0 0 1-.335.058m16.813-6.657a1 1 0 0 1-.932-.638c-1.757-4.516-1.67-12.048-1.665-12.366.008-.552.456-1.043 1.014-.985a1 1 0 0 1 .985 1.014c-.001.074-.085 7.46 1.53 11.613a1 1 0 0 1-.57 1.294c-.12.047-.242.068-.362.068"/></g><g class="C"><use xlink:href="#V"/><use xlink:href="#V"/></g><g class="F"><path d="M192.928 275.2c-14.417-.834-41.908-12.9-41.935-20.15-.08-22.117 9.543-39.527 14.05-63.604 1.504-8.037 5.88-15.096 6.004-21.015-4.726-1.864-11.275-5.448-16.457-11.722 0 0 9.735-29.773 13.484-36.643s18.75-10.92 18.75-10.92a.3.3 0 0 0 .009.018c5.6-3.38 12.63-5.582 20.368-6.266l.105-.008c-2.88-.284-5.968-.28-9.238.008-7.737.684-14.757 2.886-20.368 6.266-.001-.001-.01-.018-.01-.018s-15 4.05-18.75 10.92-13.484 36.643-13.484 36.643c5.18 6.274 11.73 9.858 16.457 11.722-.124 5.92-4.5 12.978-6.005 21.015-4.507 24.077-14.13 41.487-14.05 63.604.028 7.24 27.52 19.317 41.936 20.15 3.315.192 7.18.238 11.166.095l-2.033-.095m37.747-118.685c.085 3.297 6.063 16.928 8.824 20.763 1.87-.112 10.316-3.2 12.75-4.642-4.235-2.622-18.793-12.833-21.574-16.12"/><path d="M199.905 121.17l-2.427-15.62c-5.847 1.032-11.166 2.952-15.596 5.62-.008-.018-15.01 4.033-18.758 10.903-.89 1.633-2.12 4.567-3.478 8.08.032-.032.064-.055.096-.088 4.984-5.18 25.212-9.088 40.163-8.896"/></g><path d="M159.797 121.037h81.96l-1.893-2.887a23.48 23.48 0 0 0-2.66-3.113H167.8c-3.134 1.574-6.223 3.594-7.994 6m-6.71 16h98.802l-3.78-6h-92.8l-2.223 6m-5.554 16h113.633l.234-.842-3.23-5.158h-108.6l-2.04 6m11.402 16h72.12l-.088-3.34 2.848 3.34h18.886c1.536-1.66 3.017-3.652 4.365-6H149.854c3.033 2.648 6.22 4.598 9.077 6m-1.087 16h73.512l-.028-6H160.02l-2.176 6m-3.864 16h76.667l.374-6h-75.648l-1.393 6m-4.55 16h79.77l.606-6H151.23l-1.8 6m-4.53 16h82.4l.754-6h-81.58l-1.576 6m-2.64 16h82.87l.836-6h-83.04l-.665 6m10.406 16h70.442c.046-1.175.28-3.235.64-6h-79.55c1.88 1.953 4.866 4.02 8.467 6" class="I"/><path d="M159.797 121.037h40.088l-.933-6h-31.16c-3.134 1.574-6.223 3.594-7.994 6m-6.713 16h8.95l2.223-6h-8.95l-2.223 6m-5.555 16h8.95l2.04-6h-8.95l-2.04 6m11.4 16h8.95c-2.858-1.402-6.044-3.352-9.076-6h-8.95c3.033 2.648 6.22 4.598 9.077 6m-1.087 16h8.95l2.176-6h-8.95l-2.176 6m-3.864 16h8.95l1.393-6h-8.95l-1.393 6m-4.55 16h8.95l1.798-6h-8.95l-1.8 6m-4.528 16h8.95l1.575-6h-8.95l-1.576 6m-2.64 16h8.95l.665-6h-8.95l-.665 6m10.407 16h8.95c-3.6-1.98-6.586-4.047-8.467-6h-8.95c1.88 1.953 4.866 4.02 8.467 6" class="J"/><g class="B"><path d="M165.194 171.44a1.04 1.04 0 0 1-.227-.025c-.424-.1-10.466-2.52-16.434-11.782a1 1 0 0 1-.109-.856c.4-1.234 10.074-30.312 13.822-37.18 3.91-7.163 18.738-11.24 19.367-11.41a1 1 0 1 1 .522 1.932c-.146.04-14.633 4.02-18.133 10.434-3.412 6.254-12.252 32.577-13.526 36.394 5.553 8.237 14.85 10.497 14.944 10.52a1 1 0 0 1-.226 1.974"/><path d="M193.81 276.367c-2.1 0-4.084-.055-5.89-.16-12.062-.696-35.46-9.16-41.976-16.535-1.286-1.455-1.894-2.853-1.808-4.154 1.04-15.698 7.528-38.3 13.253-58.26 5.342-18.612 10.386-36.19 10.2-45.103a1 1 0 0 1 .979-1.021.99.99 0 0 1 1.021.98c.19 9.214-4.894 26.935-10.278 45.695-5.698 19.854-12.155 42.356-13.18 57.84-.05.738.404 1.67 1.31 2.697 5.644 6.4 28.027 15.136 40.593 15.863 12.875.745 33.7-1.1 39.307-6.497.902-.868 1.33-1.755 1.312-2.713-.444-22.727 1.857-51.002 3.537-71.648 1.057-12.995 1.893-23.26 1.76-28.136a1 1 0 0 1 .972-1.028c.55.001 1.012.42 1.027.973.137 4.985-.702 15.298-1.765 28.353-1.676 20.604-3.973 48.82-3.53 71.447.03 1.524-.617 2.935-1.924 4.193-5.4 5.198-22.212 7.21-34.92 7.21"/><path d="M242.58 176.976h-.002a1 1 0 0 1-.836-.451l-2.792-4.027c-2.526-3.564-5.984-8.445-9.654-14.712a1 1 0 1 1 1.726-1.01c3.626 6.192 7.055 11.032 9.56 14.566l2.523 3.617c4.855-.3 16.665-4.74 21.218-22.593l-21.276-33.638c-6.753-9.562-20.992-13.795-38.09-11.326a.99.99 0 0 1-1.132-.847 1 1 0 0 1 .846-1.132c17.857-2.582 32.813 1.964 40.01 12.15 2.02 2.862 20.766 32.818 21.563 34.09a1 1 0 0 1 .123.77c-4.43 18.005-16.65 24.54-23.786 24.54"/></g><use xlink:href="#W" class="C"/><use xlink:href="#W" x="-3.387" class="E"/><path d="M179.522 66.28s-9.224-20.4-9.224-37.863c1.143-.938 2.415-1.79 3.774-2.578-7.47 1.436-14.394 4.027-19.216 7.98 0 17.462 9.224 37.863 9.224 37.863s7.173-.63 47.32-.002c0 0 .455-2.12.97-5.592-27.46-.28-32.848.19-32.848.19" class="G"/><path d="M184.58 70.4l29.4.27c.813-4.242 4.3-24.453.48-41.295-11.43-5.91-41.69-5.714-55.205 4.922.15 15.248 7.35 32.826 8.858 36.344 1.554-.08 5.94-.24 16.476-.24m-17.112 2.282a1 1 0 0 1-.911-.588c-.38-.84-9.314-20.798-9.314-38.275a1 1 0 0 1 .366-.773c14.483-11.873 46.516-11.65 58.197-5.216a1 1 0 0 1 .491.647c4.55 19.352-.48 43.177-.532 43.415a1 1 0 0 1-.977.789h-.016c-39.5-.62-47.145-.01-47.218-.003-.03.003-.057.004-.086.004" class="B"/><use xlink:href="#X" class="C"/><use xlink:href="#X" x="-3" class="D"/><path d="M205.882 116.533c-9.02 0-13.407-6.584-12.656-13.136 1.122-9.77-.755-15.63-.755-15.63-1.684-4.548-.414-9.46 2.832-12.655-1.448-.027-2.924.197-4.365.73-6.184 2.29-9.342 9.16-7.052 15.343 0 0 1.877 5.86.755 15.63-.75 6.552 3.636 13.135 12.656 13.135 4.32 0 7.195-1.356 9.05-3.436-.158.004-.304.02-.466.02" class="E"/><path d="M198.066 76.102a10.91 10.91 0 0 0-3.782.678c-2.74 1.013-4.92 3.035-6.14 5.7s-1.335 5.627-.32 8.368c.094.29 1.944 6.22.81 16.1-.357 3.118.564 6.17 2.53 8.372 2.13 2.387 5.287 3.65 9.133 3.65 8.798 0 10.825-6.003 10.977-11.038.443-14.74-2.363-23.136-2.93-24.67-1.63-4.407-5.824-7.14-10.277-7.14m2.23 44.847c-5.6 0-8.87-2.348-10.626-4.318-2.343-2.628-3.445-6.247-3.023-9.93 1.08-9.405-.697-15.155-.715-15.21-1.185-3.2-1.05-6.713.393-9.855s4.024-5.53 7.266-6.73c6.696-2.472 14.155.96 16.628 7.643.6 1.595 3.507 10.315 3.053 25.424-.252 8.368-4.86 12.978-12.976 12.978" class="B"/><use xlink:href="#Y" class="C"/><use xlink:href="#Y" x="-3.64" class="D"/><path d="M174.178 90.153c-.075-9.877-.914-15.69-2.39-25.106-3.167-20.187 12.835-26.67 20.196-28.116-2.933-.536-5.7-.503-7.876-.162-6.85 1.074-24.4 7.226-21.1 28.278 1.477 9.415 2.316 15.23 2.392 25.106.092 12.028 10.724 18.346 21.746 16.053-7.285-1.6-12.9-7.327-12.968-16.053" class="E"/><g class="B"><path d="M191.204 37.508c-1.17 0-2.282.1-3.302.25-1.895.297-8.493 1.637-13.846 6.405-5.63 5.016-7.8 12-6.42 20.73 1.484 9.46 2.328 15.297 2.404 25.254.067 8.765 6.433 15.144 15.48 15.515 12.107.465 26.1-9.957 28.27-34.068 1.168-13.037-1.38-22.587-7.576-28.385-4.5-4.22-10.248-5.7-15-5.7h0zm-4.865 70.17a24.57 24.57 0 0 1-.901-.018c-10.168-.416-17.322-7.612-17.398-17.498-.075-9.815-.9-15.592-2.38-24.958-1.483-9.456.894-17.037 7.065-22.533 5.76-5.132 12.836-6.57 14.867-6.888 5.637-.883 13.848.217 20 5.966 6.668 6.24 9.427 16.34 8.2 30.023-2.225 24.832-16.64 35.906-29.444 35.906h0zm-10.896-36.552a3 3 0 0 0-3.247-2.73 3 3 0 0 0-2.73 3.247 3 3 0 0 0 3.247 2.73 3 3 0 0 0 2.73-3.247m21.394-2.43a3 3 0 0 0-3.247-2.73 3 3 0 0 0-2.73 3.247 3 3 0 0 0 3.247 2.73 3 3 0 0 0 2.73-3.247m-11.664 20.953c5.432-.47 9.454-5.253 8.985-10.685l-19.67 1.7c.47 5.43 5.253 9.454 10.685 8.984"/><path d="M175.626 81.568a8.8 8.8 0 0 0 2.987 5.034c1.814 1.525 4.114 2.25 6.474 2.05h0a8.81 8.81 0 0 0 6.026-3.129 8.8 8.8 0 0 0 2.08-5.473l-17.567 1.52zm8.678 9.117c-2.553 0-5-.9-6.978-2.552a10.8 10.8 0 0 1-3.834-7.384 1 1 0 0 1 .91-1.082l19.67-1.7c.265-.024.527.06.73.23a1 1 0 0 1 .353.68 10.8 10.8 0 0 1-2.511 7.932c-1.87 2.223-4.492 3.585-7.385 3.834l-.955.042zm-18.574-22.74a1 1 0 0 1-.99-.867c-.347-2.617.332-8.026 5.392-9.765a1 1 0 0 1 1.271.62 1 1 0 0 1-.621 1.271c-4.767 1.64-4.1 7.37-4.06 7.612a1 1 0 0 1-.862 1.12.97.97 0 0 1-.131.009m34.567-5.87a1 1 0 0 1-.966-.744c-1.186-4.486-2.617-5.738-6.125-5.336-.55.057-1.044-.333-1.106-.882a1 1 0 0 1 .881-1.106c5.242-.58 7.056 2.167 8.283 6.812a1 1 0 0 1-.711 1.223 1.03 1.03 0 0 1-.256.033"/></g><path d="M165.624 55s14.04-7.458 32.79-5.03c0 0 8.536 5.668 8.263 16.31h3.28c.596 0 1.067-.465 1.128-1.058.113-1.108.606-1.284 3.98-1.224 0 0 1.367-14.154.512-17.576S196.884 33.82 196.884 33.82l-13.686.514-13.43 6.33-4.09 8.21-.054 6.126z" class="E"/><path d="M171.4 39.894l-1.633.77-6.565 8.097-.405 6.703 2.825-.464s3.225-1.7 8.636-3.224c-1.084-3.637-2.118-7.698-2.858-11.882m35.27 26.146l.006.24h3.28c.233 0 .436-.087.614-.2l-3.9-.032" class="G"/><path d="M207.687 67.16h-.026a1 1 0 0 1-.974-1.025c.228-8.89-3.432-13.583-4.29-14.558-18.6-3.985-36.166 4.24-36.342 4.325a1 1 0 1 1-.861-1.805c.75-.357 18.56-8.697 37.937-4.407.18.04.345.128.477.256.22.21 5.36 5.283 5.08 16.24a1 1 0 0 1-.999.975" class="B"/><path d="M215.576 46.423c-.147-.59-.81-1.354-1.79-2.212.204 7.59-.45 14.724-1.128 19.822.57-.05 1.344-.053 2.405-.035 0 0 1.367-14.154.512-17.575" class="C"/><path d="M212.765 73.55a4.6 4.6 0 0 0 4.597-4.597c0-2.54-2.058-4.596-4.597-4.596h-1.628l-.98 9.193h2.608z" class="D"/><path d="M212.765 64.357v.674c1.332.805 2.232 2.253 2.232 3.923s-.9 3.118-2.232 3.923v.673c2.54 0 4.597-2.057 4.597-4.596a4.6 4.6 0 0 0-4.597-4.597" class="C"/><path d="M212.765 74.55a1 1 0 1 1 0-2 3.6 3.6 0 0 0 3.597-3.597 3.6 3.6 0 0 0-3.597-3.596 1 1 0 1 1 0-2c3.086 0 5.597 2.5 5.597 5.596a5.6 5.6 0 0 1-5.597 5.597m-38.815 40.47a1 1 0 0 1-.36-1.933l13.62-5.258a1 1 0 0 1 1.293.572 1 1 0 0 1-.572 1.293l-13.62 5.26a.99.99 0 0 1-.36.067M342.04 456h-306a1 1 0 1 1 0-2h306a1 1 0 1 1 0 2" class="B"/></g><defs ><path id="B" d="M317.04 114a1 1 0 1 1 0-2c1.654 0 3-1.346 3-3s-1.346-3-3-3-3 1.346-3 3a1 1 0 1 1-2 0c0-2.757 2.243-5 5-5s5 2.243 5 5-2.243 5-5 5"/><path id="C" d="M687.04 371.037h4v-60h-4v60zm5 2h-6a1 1 0 0 1-1-1v-62a1 1 0 0 1 1-1h6a1 1 0 0 1 1 1v62a1 1 0 0 1-1 1h0z"/><path id="D" d="M690.04 342h18v-4h-18v4zm19 2h-20a1 1 0 0 1-1-1v-6a1 1 0 0 1 1-1h20a1 1 0 0 1 1 1v6a1 1 0 0 1-1 1h0z"/><path id="E" d="M431.344 364.693a2.99 2.99 0 0 0-2.984 2.984 2.99 2.99 0 0 0 2.984 2.985 2.99 2.99 0 0 0 2.984-2.985 2.99 2.99 0 0 0-2.984-2.984m0 7.97c-2.748 0-4.984-2.237-4.984-4.985a4.99 4.99 0 0 1 4.984-4.984 4.99 4.99 0 0 1 4.984 4.984c0 2.748-2.236 4.985-4.984 4.985"/><path id="F" d="M425.134 230.856c5.337 0 10.576-4.79 21.155-14.92 3.784-3.622 9.34-8.944 11.824-10.594 3.88.001 8.695.668 10.373.953 4.34.748 8.454-2.177 9.195-6.512a7.97 7.97 0 0 0-6.506-9.198c-.34-.057-8.37-1.417-14.932-1.143-5.118.215-9.567 4.057-20.977 14.983l-3.72 3.543c.65-6.012 1.788-13.414 3.046-19.893a7.97 7.97 0 0 0-6.303-9.341 7.97 7.97 0 0 0-9.342 6.302c-.072.37-1.773 9.157-2.896 18.252-1.373 11.1-3.082 24.935 6.88 27.3.746.177 1.477.267 2.205.267"/><path id="G" d="M480.794 140.27c2.466-6.128 10.302-12.632 19.917-10.213 10.37 2.61 15.434 13.49 12.184 22-2.06 5.39-.294 8.227 2.276 8.523 3.75.43 18.807 3.198 25.14 17.7 6.62 15.16 1.226 35.314-18.72 41.932-27.34 9.072-38.847-14.83-39.595-20.207"/><path id="H" d="M362.723 358.62c3.693 0 7.335-1.705 9.674-4.92l41.472-56.874c.51-.7 1.312-1.106 2.2-1.068l46.273 1.712c6.564.246 12.142-4.907 12.386-11.503s-4.906-12.145-11.502-12.39l-46.273-1.712c-8.83-.313-17.214 3.747-22.413 10.894l-41.47 56.873c-3.885 5.337-2.707 12.814 2.63 16.7 2.123 1.545 4.585 2.288 7.024 2.29"/><path id="I" d="M472.625 161.64a2.14 2.14 0 0 1 2.138-2.138 2.14 2.14 0 0 1 2.138 2.138 2.14 2.14 0 0 1-2.138 2.138 2.14 2.14 0 0 1-2.138-2.138"/><path id="J" d="M441.288 272.145c-4.37-.77-7.863-1.723-11.806-.296s-6.826 3.588-5.284 8.11 11.58 14.027 20.503 13.772 6.6-9.635 6.6-9.635l-10.023-11.95z"/><path id="K" d="M541.252 370.662h93.627V261.097h-93.627v109.565zm94.627 2h-95.627a1 1 0 0 1-1-1V260.097a1 1 0 0 1 1-1h95.627a1 1 0 0 1 1 1v111.565a1 1 0 0 1-1 1h0z"/><path id="L" d="M530.627 370.662h8.625V261.097h-8.625v109.565zm9.625 2h-10.625a1 1 0 0 1-1-1V260.097a1 1 0 0 1 1-1h10.625a1 1 0 0 1 1 1v111.565a1 1 0 0 1-1 1h0z"/><path id="M" d="M496.35 278.836c.788 5.427.88 11.142-5.75 16.704-4.553 3.822-10.536 5.294-17.783 4.385l-30.78-3.56 11.92 56.902c1.355 6.462-2.784 12.797-9.245 14.153a11.97 11.97 0 0 1-2.466.257c-5.536 0-10.505-3.87-11.687-9.502l-13.9-66.34a16.99 16.99 0 0 1 4.049-14.881c3.646-4.007 9.037-6.038 14.42-5.427l4.15.468 25.974 2.955"/><path id="N" d="M449.914 243.863c-.027-2.66 1.373-5.878 3.484-8.012 1.5-1.515 3.2-2.317 4.912-2.317a3.32 3.32 0 0 1 .224 6.633c-.723.406-1.992 2.394-1.98 3.625.02 1.834-1.452 3.336-3.286 3.356h-.035a3.32 3.32 0 0 1-3.32-3.285h0z"/><path id="O" d="M464.61 248.294a3.66 3.66 0 0 1-3.656-3.656c0-1.667.353-3.205 1.048-4.57a1 1 0 1 1 1.782.909c-.55 1.082-.83 2.313-.83 3.662a1.66 1.66 0 0 0 1.656 1.656 1.66 1.66 0 0 0 1.656-1.656 1 1 0 1 1 2 0 3.66 3.66 0 0 1-3.656 3.656"/><path id="P" d="M489.182 161.15s-.634-13.784-10.322-18.962c0 0 .442-3.506 4.266-5.87 0 0 10.43 8.388 6.056 24.832"/><path id="Q" d="M225.91 284.35l.298.01c5.495.057 9.998-4.35 10.056-9.846l.205-19.422 40.548-56.106c2.278-3.154 2.5-7.346.594-10.73l-39.07-69.022c-2.707-4.782-8.78-6.465-13.56-3.758s-6.465 8.778-3.758 13.56l35.926 63.465-38.66 53.497c-1.205 1.667-1.863 3.665-1.885 5.723l-.24 22.58c-.056 5.396 4.192 9.835 9.548 10.05"/><path id="R" d="M187.547 436h26.3l24.545 6.536c3.93 1.047 6.65 4.46 6.65 8.352V454h-54.915a3 3 0 0 1-2.998-3.085l.42-14.915z"/><path id="S" d="M169.535 436.037h-26.3l-24.545 6.537c-3.93 1.047-6.65 4.46-6.65 8.35v3.112h54.915a3 3 0 0 0 2.998-3.084l-.42-14.916z"/><path id="T" d="M188.887 432.1l-7.845-161.053c-.092-7.692 21.064-19.726 28.757-19.82h.168c7.618 0 13.837 6.128 13.927 13.766l-9.95 167.343c-.546 3.838-23.85 5.006-25.057-.236"/><path id="U" d="M145.822 437.12l-12.26-80.938c-.68-2.36-.725-4.862-.13-7.245l10.662-78.444c4.947-19.455 18.818-17.58 26.283-15.708s19.532 13.8 17.664 21.253l-26.016 77.656 4.774 80.2c-2.744 4.052-13.647 5.978-20.978 3.225"/><path id="V" d="M146.042 255.06c-.08-22.116 9.544-39.526 14.05-63.604 1.505-8.037 5.88-15.095 6.005-21.014-4.726-1.864-11.275-5.448-16.456-11.723 0 0 9.735-29.772 13.483-36.642s18.75-10.922 18.75-10.922c5.62-3.362 12.64-5.564 20.377-6.247 5.3-.468 10.127-.192 14.348.854 13.347.526 22.543 5.704 27.265 12.4 2.03 2.872 21.532 34.045 21.532 34.045-4.51 17.33-15.625 23.78-21.532 23.78l-8.9-10.28.342 12.42c.93 31.618-8.295 81.217-8.208 87.402.124 8.656-24.702 10.525-39.12 9.69s-41.91-12.9-41.936-20.15"/><path id="W" d="M214.787 71.682s5.087-23.62.536-42.976c-11.552-6.362-43.115-6.336-57.08 5.114 0 17.463 9.224 37.863 9.224 37.863s7.173-.63 47.32-.001"/><path id="X" d="M200.297 119.95c9.02 0 11.792-5.88 11.976-12.008.46-15.288-2.527-23.793-2.99-25.047a11.95 11.95 0 0 0-15.344-7.052c-6.184 2.29-9.342 9.16-7.052 15.343 0 0 1.877 5.86.755 15.63-.75 6.55 3.636 13.135 12.656 13.135"/><path id="Y" d="M214.787 71.682c2.888-32.23-17.625-36.4-27.04-34.912-6.85 1.074-24.4 7.225-21.1 28.277 1.477 9.415 2.316 15.23 2.392 25.107.183 23.857 41.827 25.268 45.747-18.472"/></defs></svg>